<mxfile host="app.diagrams.net" modified="2024-03-23T03:00:47.290Z" agent="Mozilla/5.0 (Windows NT 10.0; Win64; x64) AppleWebKit/537.36 (KHTML, like Gecko) Chrome/122.0.0.0 Safari/537.36 Edg/122.0.0.0" etag="sP4kpIOohLQhsfG4jmq3" version="24.0.2" type="github">
  <diagram name="Página-1" id="UncGRlIJgYnhkhxXrw7H">
    <mxGraphModel dx="7507" dy="7300" grid="1" gridSize="10" guides="1" tooltips="1" connect="1" arrows="1" fold="1" page="1" pageScale="1" pageWidth="827" pageHeight="1169" math="0" shadow="0">
      <root>
        <mxCell id="0" />
        <mxCell id="1" parent="0" />
        <mxCell id="HU9QyjZtkQBuaY1ddd4f-9" style="edgeStyle=orthogonalEdgeStyle;rounded=0;orthogonalLoop=1;jettySize=auto;html=1;exitX=0;exitY=0.5;exitDx=0;exitDy=0;entryX=1;entryY=0.5;entryDx=0;entryDy=0;endArrow=none;endFill=0;" edge="1" parent="1" source="HU9QyjZtkQBuaY1ddd4f-1" target="HU9QyjZtkQBuaY1ddd4f-8">
          <mxGeometry relative="1" as="geometry">
            <mxPoint x="70" y="-225" as="sourcePoint" />
            <mxPoint x="-140" y="215" as="targetPoint" />
            <Array as="points">
              <mxPoint x="-50" y="-225" />
              <mxPoint x="-50" y="215" />
            </Array>
          </mxGeometry>
        </mxCell>
        <mxCell id="HU9QyjZtkQBuaY1ddd4f-10" style="edgeStyle=orthogonalEdgeStyle;rounded=0;orthogonalLoop=1;jettySize=auto;html=1;entryX=1;entryY=0.5;entryDx=0;entryDy=0;endArrow=none;endFill=0;" edge="1" parent="1" source="HU9QyjZtkQBuaY1ddd4f-1" target="HU9QyjZtkQBuaY1ddd4f-3">
          <mxGeometry relative="1" as="geometry" />
        </mxCell>
        <mxCell id="HU9QyjZtkQBuaY1ddd4f-11" style="edgeStyle=orthogonalEdgeStyle;rounded=0;orthogonalLoop=1;jettySize=auto;html=1;exitX=0;exitY=0.5;exitDx=0;exitDy=0;entryX=1;entryY=0.5;entryDx=0;entryDy=0;endArrow=none;endFill=0;" edge="1" parent="1" source="HU9QyjZtkQBuaY1ddd4f-1" target="HU9QyjZtkQBuaY1ddd4f-4">
          <mxGeometry relative="1" as="geometry" />
        </mxCell>
        <mxCell id="HU9QyjZtkQBuaY1ddd4f-12" style="edgeStyle=orthogonalEdgeStyle;rounded=0;orthogonalLoop=1;jettySize=auto;html=1;entryX=1;entryY=0.5;entryDx=0;entryDy=0;endArrow=none;endFill=0;" edge="1" parent="1" source="HU9QyjZtkQBuaY1ddd4f-1" target="HU9QyjZtkQBuaY1ddd4f-2">
          <mxGeometry relative="1" as="geometry" />
        </mxCell>
        <mxCell id="HU9QyjZtkQBuaY1ddd4f-13" style="edgeStyle=orthogonalEdgeStyle;rounded=0;orthogonalLoop=1;jettySize=auto;html=1;entryX=1;entryY=0.5;entryDx=0;entryDy=0;endArrow=none;endFill=0;" edge="1" parent="1" source="HU9QyjZtkQBuaY1ddd4f-1" target="HU9QyjZtkQBuaY1ddd4f-6">
          <mxGeometry relative="1" as="geometry" />
        </mxCell>
        <mxCell id="HU9QyjZtkQBuaY1ddd4f-14" style="edgeStyle=orthogonalEdgeStyle;rounded=0;orthogonalLoop=1;jettySize=auto;html=1;entryX=1;entryY=0.5;entryDx=0;entryDy=0;endArrow=none;endFill=0;" edge="1" parent="1" source="HU9QyjZtkQBuaY1ddd4f-1" target="HU9QyjZtkQBuaY1ddd4f-5">
          <mxGeometry relative="1" as="geometry" />
        </mxCell>
        <mxCell id="HU9QyjZtkQBuaY1ddd4f-1" value="Escuela" style="rounded=0;whiteSpace=wrap;html=1;fillColor=#dae8fc;strokeColor=#6c8ebf;" vertex="1" parent="1">
          <mxGeometry x="60" y="-255" width="120" height="60" as="geometry" />
        </mxCell>
        <mxCell id="HU9QyjZtkQBuaY1ddd4f-2" value="Id Escuela" style="ellipse;whiteSpace=wrap;html=1;fillColor=#dae8fc;strokeColor=#6c8ebf;" vertex="1" parent="1">
          <mxGeometry x="-270" y="-95" width="120" height="80" as="geometry" />
        </mxCell>
        <mxCell id="HU9QyjZtkQBuaY1ddd4f-3" value="Sistema" style="ellipse;whiteSpace=wrap;html=1;fillColor=#dae8fc;strokeColor=#6c8ebf;" vertex="1" parent="1">
          <mxGeometry x="-270" y="85" width="120" height="80" as="geometry" />
        </mxCell>
        <mxCell id="HU9QyjZtkQBuaY1ddd4f-4" value="Director" style="ellipse;whiteSpace=wrap;html=1;fillColor=#dae8fc;strokeColor=#6c8ebf;" vertex="1" parent="1">
          <mxGeometry x="-270" y="-5" width="120" height="80" as="geometry" />
        </mxCell>
        <mxCell id="HU9QyjZtkQBuaY1ddd4f-5" value="Administración" style="ellipse;whiteSpace=wrap;html=1;fillColor=#dae8fc;strokeColor=#6c8ebf;" vertex="1" parent="1">
          <mxGeometry x="-270" y="-275" width="120" height="80" as="geometry" />
        </mxCell>
        <mxCell id="HU9QyjZtkQBuaY1ddd4f-6" value="Recursos" style="ellipse;whiteSpace=wrap;html=1;fillColor=#dae8fc;strokeColor=#6c8ebf;" vertex="1" parent="1">
          <mxGeometry x="-270" y="-185" width="120" height="80" as="geometry" />
        </mxCell>
        <mxCell id="HU9QyjZtkQBuaY1ddd4f-8" value="Personal de aseo" style="ellipse;whiteSpace=wrap;html=1;fillColor=#dae8fc;strokeColor=#6c8ebf;" vertex="1" parent="1">
          <mxGeometry x="-270" y="175" width="120" height="80" as="geometry" />
        </mxCell>
        <mxCell id="HU9QyjZtkQBuaY1ddd4f-24" style="edgeStyle=orthogonalEdgeStyle;rounded=0;orthogonalLoop=1;jettySize=auto;html=1;entryX=0;entryY=0.5;entryDx=0;entryDy=0;endArrow=none;endFill=0;startArrow=none;startFill=0;" edge="1" parent="1" source="HU9QyjZtkQBuaY1ddd4f-17" target="HU9QyjZtkQBuaY1ddd4f-23">
          <mxGeometry relative="1" as="geometry" />
        </mxCell>
        <mxCell id="HU9QyjZtkQBuaY1ddd4f-25" style="edgeStyle=orthogonalEdgeStyle;rounded=0;orthogonalLoop=1;jettySize=auto;html=1;entryX=0;entryY=0.5;entryDx=0;entryDy=0;endArrow=none;endFill=0;startArrow=none;startFill=0;" edge="1" parent="1" source="HU9QyjZtkQBuaY1ddd4f-17" target="HU9QyjZtkQBuaY1ddd4f-21">
          <mxGeometry relative="1" as="geometry" />
        </mxCell>
        <mxCell id="HU9QyjZtkQBuaY1ddd4f-26" style="edgeStyle=orthogonalEdgeStyle;rounded=0;orthogonalLoop=1;jettySize=auto;html=1;entryX=0;entryY=0.5;entryDx=0;entryDy=0;endArrow=none;endFill=0;startArrow=none;startFill=0;" edge="1" parent="1" source="HU9QyjZtkQBuaY1ddd4f-17" target="HU9QyjZtkQBuaY1ddd4f-20">
          <mxGeometry relative="1" as="geometry" />
        </mxCell>
        <mxCell id="HU9QyjZtkQBuaY1ddd4f-27" style="edgeStyle=orthogonalEdgeStyle;rounded=0;orthogonalLoop=1;jettySize=auto;html=1;entryX=0;entryY=0.5;entryDx=0;entryDy=0;endArrow=none;endFill=0;startArrow=none;startFill=0;" edge="1" parent="1" source="HU9QyjZtkQBuaY1ddd4f-17" target="HU9QyjZtkQBuaY1ddd4f-19">
          <mxGeometry relative="1" as="geometry" />
        </mxCell>
        <mxCell id="HU9QyjZtkQBuaY1ddd4f-39" style="edgeStyle=orthogonalEdgeStyle;rounded=0;orthogonalLoop=1;jettySize=auto;html=1;entryX=0;entryY=0.5;entryDx=0;entryDy=0;endArrow=none;endFill=0;startArrow=none;startFill=0;" edge="1" parent="1" source="HU9QyjZtkQBuaY1ddd4f-17" target="HU9QyjZtkQBuaY1ddd4f-37">
          <mxGeometry relative="1" as="geometry" />
        </mxCell>
        <mxCell id="HU9QyjZtkQBuaY1ddd4f-40" style="edgeStyle=orthogonalEdgeStyle;rounded=0;orthogonalLoop=1;jettySize=auto;html=1;exitX=1;exitY=0.5;exitDx=0;exitDy=0;entryX=0;entryY=0.5;entryDx=0;entryDy=0;endArrow=none;endFill=0;startArrow=none;startFill=0;" edge="1" parent="1" source="HU9QyjZtkQBuaY1ddd4f-17" target="HU9QyjZtkQBuaY1ddd4f-38">
          <mxGeometry relative="1" as="geometry" />
        </mxCell>
        <mxCell id="HU9QyjZtkQBuaY1ddd4f-17" value="Docente" style="rounded=0;whiteSpace=wrap;html=1;fillColor=#d5e8d4;strokeColor=#82b366;" vertex="1" parent="1">
          <mxGeometry x="710" y="-255" width="120" height="60" as="geometry" />
        </mxCell>
        <mxCell id="HU9QyjZtkQBuaY1ddd4f-18" value="Tiene" style="rhombus;whiteSpace=wrap;html=1;fillColor=#f8cecc;strokeColor=#b85450;" vertex="1" parent="1">
          <mxGeometry x="420" y="-265" width="80" height="80" as="geometry" />
        </mxCell>
        <mxCell id="HU9QyjZtkQBuaY1ddd4f-19" value="Modulos" style="ellipse;whiteSpace=wrap;html=1;fillColor=#d5e8d4;strokeColor=#82b366;" vertex="1" parent="1">
          <mxGeometry x="980" y="-320" width="120" height="80" as="geometry" />
        </mxCell>
        <mxCell id="HU9QyjZtkQBuaY1ddd4f-20" value="Nombre&amp;nbsp;" style="ellipse;whiteSpace=wrap;html=1;fillColor=#d5e8d4;strokeColor=#82b366;" vertex="1" parent="1">
          <mxGeometry x="980" y="-230" width="120" height="80" as="geometry" />
        </mxCell>
        <mxCell id="HU9QyjZtkQBuaY1ddd4f-21" value="Ética" style="ellipse;whiteSpace=wrap;html=1;fillColor=#d5e8d4;strokeColor=#82b366;" vertex="1" parent="1">
          <mxGeometry x="980" y="-140" width="120" height="80" as="geometry" />
        </mxCell>
        <mxCell id="HU9QyjZtkQBuaY1ddd4f-23" value="Experiencia" style="ellipse;whiteSpace=wrap;html=1;fillColor=#d5e8d4;strokeColor=#82b366;" vertex="1" parent="1">
          <mxGeometry x="980" y="-50" width="120" height="80" as="geometry" />
        </mxCell>
        <mxCell id="HU9QyjZtkQBuaY1ddd4f-30" value="" style="endArrow=ERone;startArrow=ERmany;html=1;rounded=0;exitX=1;exitY=0.5;exitDx=0;exitDy=0;startFill=0;endFill=0;" edge="1" parent="1" source="HU9QyjZtkQBuaY1ddd4f-1">
          <mxGeometry width="50" height="50" relative="1" as="geometry">
            <mxPoint x="370" y="-175" as="sourcePoint" />
            <mxPoint x="420" y="-225" as="targetPoint" />
          </mxGeometry>
        </mxCell>
        <mxCell id="HU9QyjZtkQBuaY1ddd4f-31" value="" style="endArrow=ERone;startArrow=ERmany;html=1;rounded=0;exitX=1;exitY=0.5;exitDx=0;exitDy=0;endFill=0;startFill=0;" edge="1" parent="1">
          <mxGeometry width="50" height="50" relative="1" as="geometry">
            <mxPoint x="500" y="-225.59" as="sourcePoint" />
            <mxPoint x="710" y="-226" as="targetPoint" />
          </mxGeometry>
        </mxCell>
        <mxCell id="HU9QyjZtkQBuaY1ddd4f-142" style="edgeStyle=orthogonalEdgeStyle;rounded=0;orthogonalLoop=1;jettySize=auto;html=1;entryX=0;entryY=0.5;entryDx=0;entryDy=0;exitX=0.5;exitY=1;exitDx=0;exitDy=0;endArrow=none;endFill=0;" edge="1" parent="1" source="HU9QyjZtkQBuaY1ddd4f-32" target="HU9QyjZtkQBuaY1ddd4f-35">
          <mxGeometry relative="1" as="geometry" />
        </mxCell>
        <mxCell id="HU9QyjZtkQBuaY1ddd4f-32" value="Tiene" style="rhombus;whiteSpace=wrap;html=1;fillColor=#f8cecc;strokeColor=#b85450;" vertex="1" parent="1">
          <mxGeometry x="500" y="15" width="80" height="80" as="geometry" />
        </mxCell>
        <mxCell id="HU9QyjZtkQBuaY1ddd4f-33" value="" style="endArrow=ERmany;html=1;rounded=0;entryX=0.5;entryY=1;entryDx=0;entryDy=0;exitX=0.5;exitY=0;exitDx=0;exitDy=0;endFill=0;" edge="1" parent="1" source="HU9QyjZtkQBuaY1ddd4f-32" target="HU9QyjZtkQBuaY1ddd4f-17">
          <mxGeometry width="50" height="50" relative="1" as="geometry">
            <mxPoint x="630" y="65" as="sourcePoint" />
            <mxPoint x="680" y="15" as="targetPoint" />
            <Array as="points">
              <mxPoint x="770" y="15" />
            </Array>
          </mxGeometry>
        </mxCell>
        <mxCell id="HU9QyjZtkQBuaY1ddd4f-46" style="edgeStyle=orthogonalEdgeStyle;rounded=0;orthogonalLoop=1;jettySize=auto;html=1;entryX=0;entryY=0.5;entryDx=0;entryDy=0;endArrow=none;endFill=0;" edge="1" parent="1" source="HU9QyjZtkQBuaY1ddd4f-35" target="HU9QyjZtkQBuaY1ddd4f-45">
          <mxGeometry relative="1" as="geometry" />
        </mxCell>
        <mxCell id="HU9QyjZtkQBuaY1ddd4f-47" style="edgeStyle=orthogonalEdgeStyle;rounded=0;orthogonalLoop=1;jettySize=auto;html=1;entryX=0;entryY=0.5;entryDx=0;entryDy=0;endArrow=none;endFill=0;" edge="1" parent="1" source="HU9QyjZtkQBuaY1ddd4f-35" target="HU9QyjZtkQBuaY1ddd4f-43">
          <mxGeometry relative="1" as="geometry" />
        </mxCell>
        <mxCell id="HU9QyjZtkQBuaY1ddd4f-48" style="edgeStyle=orthogonalEdgeStyle;rounded=0;orthogonalLoop=1;jettySize=auto;html=1;entryX=0;entryY=0.5;entryDx=0;entryDy=0;endArrow=none;endFill=0;" edge="1" parent="1" source="HU9QyjZtkQBuaY1ddd4f-35" target="HU9QyjZtkQBuaY1ddd4f-44">
          <mxGeometry relative="1" as="geometry" />
        </mxCell>
        <mxCell id="HU9QyjZtkQBuaY1ddd4f-49" style="edgeStyle=orthogonalEdgeStyle;rounded=0;orthogonalLoop=1;jettySize=auto;html=1;entryX=0;entryY=0.5;entryDx=0;entryDy=0;endArrow=none;endFill=0;" edge="1" parent="1" source="HU9QyjZtkQBuaY1ddd4f-35" target="HU9QyjZtkQBuaY1ddd4f-41">
          <mxGeometry relative="1" as="geometry" />
        </mxCell>
        <mxCell id="HU9QyjZtkQBuaY1ddd4f-50" style="edgeStyle=orthogonalEdgeStyle;rounded=0;orthogonalLoop=1;jettySize=auto;html=1;entryX=0;entryY=0.5;entryDx=0;entryDy=0;endArrow=none;endFill=0;" edge="1" parent="1" source="HU9QyjZtkQBuaY1ddd4f-35" target="HU9QyjZtkQBuaY1ddd4f-42">
          <mxGeometry relative="1" as="geometry" />
        </mxCell>
        <mxCell id="HU9QyjZtkQBuaY1ddd4f-35" value="Alumno" style="rounded=0;whiteSpace=wrap;html=1;fillColor=#fff2cc;strokeColor=#d6b656;" vertex="1" parent="1">
          <mxGeometry x="690" y="345" width="120" height="60" as="geometry" />
        </mxCell>
        <mxCell id="HU9QyjZtkQBuaY1ddd4f-37" value="Id Docente" style="ellipse;whiteSpace=wrap;html=1;fillColor=#d5e8d4;strokeColor=#82b366;" vertex="1" parent="1">
          <mxGeometry x="980" y="45" width="120" height="80" as="geometry" />
        </mxCell>
        <mxCell id="HU9QyjZtkQBuaY1ddd4f-38" value="FechNac" style="ellipse;whiteSpace=wrap;html=1;fillColor=#d5e8d4;strokeColor=#82b366;" vertex="1" parent="1">
          <mxGeometry x="980" y="145" width="120" height="80" as="geometry" />
        </mxCell>
        <mxCell id="HU9QyjZtkQBuaY1ddd4f-41" value="Aportación voluntaria" style="ellipse;whiteSpace=wrap;html=1;fillColor=#fff2cc;strokeColor=#d6b656;" vertex="1" parent="1">
          <mxGeometry x="950" y="575" width="120" height="80" as="geometry" />
        </mxCell>
        <mxCell id="HU9QyjZtkQBuaY1ddd4f-42" value="Material de practica" style="ellipse;whiteSpace=wrap;html=1;fillColor=#fff2cc;strokeColor=#d6b656;" vertex="1" parent="1">
          <mxGeometry x="950" y="675" width="120" height="80" as="geometry" />
        </mxCell>
        <mxCell id="HU9QyjZtkQBuaY1ddd4f-43" value="Nombre" style="ellipse;whiteSpace=wrap;html=1;fillColor=#fff2cc;strokeColor=#d6b656;" vertex="1" parent="1">
          <mxGeometry x="950" y="375" width="120" height="80" as="geometry" />
        </mxCell>
        <mxCell id="HU9QyjZtkQBuaY1ddd4f-44" value="Matricula" style="ellipse;whiteSpace=wrap;html=1;fillColor=#fff2cc;strokeColor=#d6b656;" vertex="1" parent="1">
          <mxGeometry x="950" y="475" width="120" height="80" as="geometry" />
        </mxCell>
        <mxCell id="HU9QyjZtkQBuaY1ddd4f-45" value="Id Alumno" style="ellipse;whiteSpace=wrap;html=1;fillColor=#fff2cc;strokeColor=#d6b656;" vertex="1" parent="1">
          <mxGeometry x="950" y="275" width="120" height="80" as="geometry" />
        </mxCell>
        <mxCell id="HU9QyjZtkQBuaY1ddd4f-56" style="edgeStyle=orthogonalEdgeStyle;rounded=0;orthogonalLoop=1;jettySize=auto;html=1;entryX=1;entryY=0.5;entryDx=0;entryDy=0;endArrow=none;endFill=0;" edge="1" parent="1" source="HU9QyjZtkQBuaY1ddd4f-51" target="HU9QyjZtkQBuaY1ddd4f-54">
          <mxGeometry relative="1" as="geometry" />
        </mxCell>
        <mxCell id="HU9QyjZtkQBuaY1ddd4f-57" style="edgeStyle=orthogonalEdgeStyle;rounded=0;orthogonalLoop=1;jettySize=auto;html=1;entryX=1;entryY=0.5;entryDx=0;entryDy=0;endArrow=none;endFill=0;" edge="1" parent="1" source="HU9QyjZtkQBuaY1ddd4f-51" target="HU9QyjZtkQBuaY1ddd4f-55">
          <mxGeometry relative="1" as="geometry" />
        </mxCell>
        <mxCell id="HU9QyjZtkQBuaY1ddd4f-58" style="edgeStyle=orthogonalEdgeStyle;rounded=0;orthogonalLoop=1;jettySize=auto;html=1;entryX=1;entryY=0.5;entryDx=0;entryDy=0;endArrow=none;endFill=0;" edge="1" parent="1" source="HU9QyjZtkQBuaY1ddd4f-51" target="HU9QyjZtkQBuaY1ddd4f-53">
          <mxGeometry relative="1" as="geometry" />
        </mxCell>
        <mxCell id="HU9QyjZtkQBuaY1ddd4f-59" style="edgeStyle=orthogonalEdgeStyle;rounded=0;orthogonalLoop=1;jettySize=auto;html=1;entryX=1;entryY=0.5;entryDx=0;entryDy=0;endArrow=none;endFill=0;" edge="1" parent="1" source="HU9QyjZtkQBuaY1ddd4f-51" target="HU9QyjZtkQBuaY1ddd4f-52">
          <mxGeometry relative="1" as="geometry" />
        </mxCell>
        <mxCell id="HU9QyjZtkQBuaY1ddd4f-51" value="Biblioteca" style="rounded=0;whiteSpace=wrap;html=1;fillColor=#e1d5e7;strokeColor=#9673a6;" vertex="1" parent="1">
          <mxGeometry x="-390" y="-1750" width="120" height="60" as="geometry" />
        </mxCell>
        <mxCell id="HU9QyjZtkQBuaY1ddd4f-52" value="Id biblioteca" style="ellipse;whiteSpace=wrap;html=1;fillColor=#e1d5e7;strokeColor=#9673a6;" vertex="1" parent="1">
          <mxGeometry x="-700" y="-1610" width="120" height="80" as="geometry" />
        </mxCell>
        <mxCell id="HU9QyjZtkQBuaY1ddd4f-53" value="Editorial" style="ellipse;whiteSpace=wrap;html=1;fillColor=#e1d5e7;strokeColor=#9673a6;" vertex="1" parent="1">
          <mxGeometry x="-700" y="-1700" width="120" height="80" as="geometry" />
        </mxCell>
        <mxCell id="HU9QyjZtkQBuaY1ddd4f-54" value="Sistema" style="ellipse;whiteSpace=wrap;html=1;fillColor=#e1d5e7;strokeColor=#9673a6;" vertex="1" parent="1">
          <mxGeometry x="-700" y="-1890" width="120" height="80" as="geometry" />
        </mxCell>
        <mxCell id="HU9QyjZtkQBuaY1ddd4f-55" value="Instalación" style="ellipse;whiteSpace=wrap;html=1;fillColor=#e1d5e7;strokeColor=#9673a6;" vertex="1" parent="1">
          <mxGeometry x="-700" y="-1794" width="120" height="80" as="geometry" />
        </mxCell>
        <mxCell id="HU9QyjZtkQBuaY1ddd4f-61" style="edgeStyle=orthogonalEdgeStyle;rounded=0;orthogonalLoop=1;jettySize=auto;html=1;entryX=1;entryY=0.5;entryDx=0;entryDy=0;endArrow=ERone;endFill=0;" edge="1" parent="1" source="HU9QyjZtkQBuaY1ddd4f-60" target="HU9QyjZtkQBuaY1ddd4f-51">
          <mxGeometry relative="1" as="geometry" />
        </mxCell>
        <mxCell id="HU9QyjZtkQBuaY1ddd4f-63" style="edgeStyle=orthogonalEdgeStyle;rounded=0;orthogonalLoop=1;jettySize=auto;html=1;entryX=0;entryY=0.5;entryDx=0;entryDy=0;endArrow=ERmany;endFill=0;" edge="1" parent="1" source="HU9QyjZtkQBuaY1ddd4f-60" target="HU9QyjZtkQBuaY1ddd4f-62">
          <mxGeometry relative="1" as="geometry" />
        </mxCell>
        <mxCell id="HU9QyjZtkQBuaY1ddd4f-60" value="Tiene" style="rhombus;whiteSpace=wrap;html=1;fillColor=#d5e8d4;strokeColor=#82b366;" vertex="1" parent="1">
          <mxGeometry x="-160" y="-1620" width="80" height="80" as="geometry" />
        </mxCell>
        <mxCell id="HU9QyjZtkQBuaY1ddd4f-68" style="edgeStyle=orthogonalEdgeStyle;rounded=0;orthogonalLoop=1;jettySize=auto;html=1;entryX=0;entryY=0.5;entryDx=0;entryDy=0;endArrow=none;endFill=0;" edge="1" parent="1" source="HU9QyjZtkQBuaY1ddd4f-62" target="HU9QyjZtkQBuaY1ddd4f-67">
          <mxGeometry relative="1" as="geometry" />
        </mxCell>
        <mxCell id="HU9QyjZtkQBuaY1ddd4f-69" style="edgeStyle=orthogonalEdgeStyle;rounded=0;orthogonalLoop=1;jettySize=auto;html=1;endArrow=none;endFill=0;" edge="1" parent="1" source="HU9QyjZtkQBuaY1ddd4f-62" target="HU9QyjZtkQBuaY1ddd4f-66">
          <mxGeometry relative="1" as="geometry" />
        </mxCell>
        <mxCell id="HU9QyjZtkQBuaY1ddd4f-70" style="edgeStyle=orthogonalEdgeStyle;rounded=0;orthogonalLoop=1;jettySize=auto;html=1;endArrow=none;endFill=0;" edge="1" parent="1" source="HU9QyjZtkQBuaY1ddd4f-62" target="HU9QyjZtkQBuaY1ddd4f-65">
          <mxGeometry relative="1" as="geometry">
            <Array as="points">
              <mxPoint x="237" y="-1720" />
              <mxPoint x="237" y="-1674" />
            </Array>
          </mxGeometry>
        </mxCell>
        <mxCell id="HU9QyjZtkQBuaY1ddd4f-71" style="edgeStyle=orthogonalEdgeStyle;rounded=0;orthogonalLoop=1;jettySize=auto;html=1;entryX=0;entryY=0.5;entryDx=0;entryDy=0;endArrow=none;endFill=0;" edge="1" parent="1" source="HU9QyjZtkQBuaY1ddd4f-62" target="HU9QyjZtkQBuaY1ddd4f-64">
          <mxGeometry relative="1" as="geometry" />
        </mxCell>
        <mxCell id="HU9QyjZtkQBuaY1ddd4f-342" style="edgeStyle=orthogonalEdgeStyle;rounded=0;orthogonalLoop=1;jettySize=auto;html=1;entryX=0;entryY=0.5;entryDx=0;entryDy=0;endArrow=none;endFill=0;" edge="1" parent="1" source="HU9QyjZtkQBuaY1ddd4f-62" target="HU9QyjZtkQBuaY1ddd4f-341">
          <mxGeometry relative="1" as="geometry" />
        </mxCell>
        <mxCell id="HU9QyjZtkQBuaY1ddd4f-62" value="Libros" style="rounded=0;whiteSpace=wrap;html=1;fillColor=#f8cecc;strokeColor=#b85450;" vertex="1" parent="1">
          <mxGeometry x="60" y="-1750" width="120" height="60" as="geometry" />
        </mxCell>
        <mxCell id="HU9QyjZtkQBuaY1ddd4f-64" value="Clasificación" style="ellipse;whiteSpace=wrap;html=1;fillColor=#f8cecc;strokeColor=#b85450;" vertex="1" parent="1">
          <mxGeometry x="294" y="-1610" width="120" height="80" as="geometry" />
        </mxCell>
        <mxCell id="HU9QyjZtkQBuaY1ddd4f-65" value="Índice" style="ellipse;whiteSpace=wrap;html=1;fillColor=#f8cecc;strokeColor=#b85450;" vertex="1" parent="1">
          <mxGeometry x="294" y="-1714" width="120" height="80" as="geometry" />
        </mxCell>
        <mxCell id="HU9QyjZtkQBuaY1ddd4f-66" value="Contenido" style="ellipse;whiteSpace=wrap;html=1;fillColor=#f8cecc;strokeColor=#b85450;" vertex="1" parent="1">
          <mxGeometry x="294" y="-1820" width="120" height="80" as="geometry" />
        </mxCell>
        <mxCell id="HU9QyjZtkQBuaY1ddd4f-67" value="Diseño" style="ellipse;whiteSpace=wrap;html=1;fillColor=#f8cecc;strokeColor=#b85450;" vertex="1" parent="1">
          <mxGeometry x="294" y="-1920" width="120" height="80" as="geometry" />
        </mxCell>
        <mxCell id="HU9QyjZtkQBuaY1ddd4f-77" style="edgeStyle=orthogonalEdgeStyle;rounded=0;orthogonalLoop=1;jettySize=auto;html=1;entryX=1;entryY=0.5;entryDx=0;entryDy=0;endArrow=none;endFill=0;" edge="1" parent="1" source="HU9QyjZtkQBuaY1ddd4f-72" target="HU9QyjZtkQBuaY1ddd4f-76">
          <mxGeometry relative="1" as="geometry" />
        </mxCell>
        <mxCell id="HU9QyjZtkQBuaY1ddd4f-78" style="edgeStyle=orthogonalEdgeStyle;rounded=0;orthogonalLoop=1;jettySize=auto;html=1;entryX=1;entryY=0.5;entryDx=0;entryDy=0;endArrow=none;endFill=0;" edge="1" parent="1" source="HU9QyjZtkQBuaY1ddd4f-72" target="HU9QyjZtkQBuaY1ddd4f-75">
          <mxGeometry relative="1" as="geometry" />
        </mxCell>
        <mxCell id="HU9QyjZtkQBuaY1ddd4f-79" style="edgeStyle=orthogonalEdgeStyle;rounded=0;orthogonalLoop=1;jettySize=auto;html=1;entryX=1;entryY=0.5;entryDx=0;entryDy=0;endArrow=none;endFill=0;" edge="1" parent="1" source="HU9QyjZtkQBuaY1ddd4f-72" target="HU9QyjZtkQBuaY1ddd4f-74">
          <mxGeometry relative="1" as="geometry" />
        </mxCell>
        <mxCell id="HU9QyjZtkQBuaY1ddd4f-80" style="edgeStyle=orthogonalEdgeStyle;rounded=0;orthogonalLoop=1;jettySize=auto;html=1;entryX=1;entryY=0.5;entryDx=0;entryDy=0;endArrow=none;endFill=0;" edge="1" parent="1" source="HU9QyjZtkQBuaY1ddd4f-72" target="HU9QyjZtkQBuaY1ddd4f-73">
          <mxGeometry relative="1" as="geometry" />
        </mxCell>
        <mxCell id="HU9QyjZtkQBuaY1ddd4f-93" style="edgeStyle=orthogonalEdgeStyle;rounded=0;orthogonalLoop=1;jettySize=auto;html=1;entryX=1;entryY=0.5;entryDx=0;entryDy=0;endArrow=none;endFill=0;" edge="1" parent="1" source="HU9QyjZtkQBuaY1ddd4f-72" target="HU9QyjZtkQBuaY1ddd4f-92">
          <mxGeometry relative="1" as="geometry" />
        </mxCell>
        <mxCell id="HU9QyjZtkQBuaY1ddd4f-72" value="Centro comercial" style="rounded=0;whiteSpace=wrap;html=1;fillColor=#b0e3e6;strokeColor=#0e8088;" vertex="1" parent="1">
          <mxGeometry x="-300" y="-1070" width="120" height="60" as="geometry" />
        </mxCell>
        <mxCell id="HU9QyjZtkQBuaY1ddd4f-73" value="Gestión de producto" style="ellipse;whiteSpace=wrap;html=1;fillColor=#b0e3e6;strokeColor=#0e8088;" vertex="1" parent="1">
          <mxGeometry x="-640" y="-930" width="120" height="80" as="geometry" />
        </mxCell>
        <mxCell id="HU9QyjZtkQBuaY1ddd4f-74" value="Términos y condiciones" style="ellipse;whiteSpace=wrap;html=1;fillColor=#b0e3e6;strokeColor=#0e8088;" vertex="1" parent="1">
          <mxGeometry x="-640" y="-1040" width="120" height="80" as="geometry" />
        </mxCell>
        <mxCell id="HU9QyjZtkQBuaY1ddd4f-75" value="Financiamiento" style="ellipse;whiteSpace=wrap;html=1;fillColor=#b0e3e6;strokeColor=#0e8088;" vertex="1" parent="1">
          <mxGeometry x="-640" y="-1150" width="120" height="80" as="geometry" />
        </mxCell>
        <mxCell id="HU9QyjZtkQBuaY1ddd4f-76" value="Mantenimiento" style="ellipse;whiteSpace=wrap;html=1;fillColor=#b0e3e6;strokeColor=#0e8088;" vertex="1" parent="1">
          <mxGeometry x="-640" y="-1260" width="120" height="80" as="geometry" />
        </mxCell>
        <mxCell id="HU9QyjZtkQBuaY1ddd4f-83" style="edgeStyle=orthogonalEdgeStyle;rounded=0;orthogonalLoop=1;jettySize=auto;html=1;entryX=0;entryY=0.5;entryDx=0;entryDy=0;endArrow=ERmany;endFill=0;" edge="1" parent="1" source="HU9QyjZtkQBuaY1ddd4f-81" target="HU9QyjZtkQBuaY1ddd4f-82">
          <mxGeometry relative="1" as="geometry" />
        </mxCell>
        <mxCell id="HU9QyjZtkQBuaY1ddd4f-84" style="edgeStyle=orthogonalEdgeStyle;rounded=0;orthogonalLoop=1;jettySize=auto;html=1;entryX=1;entryY=0.5;entryDx=0;entryDy=0;endArrow=ERone;endFill=0;" edge="1" parent="1" source="HU9QyjZtkQBuaY1ddd4f-81" target="HU9QyjZtkQBuaY1ddd4f-72">
          <mxGeometry relative="1" as="geometry" />
        </mxCell>
        <mxCell id="HU9QyjZtkQBuaY1ddd4f-317" value="" style="edgeStyle=orthogonalEdgeStyle;rounded=0;orthogonalLoop=1;jettySize=auto;html=1;endArrow=ERone;endFill=0;" edge="1" parent="1" source="HU9QyjZtkQBuaY1ddd4f-337" target="HU9QyjZtkQBuaY1ddd4f-316">
          <mxGeometry relative="1" as="geometry">
            <mxPoint x="-180" y="-960" as="sourcePoint" />
          </mxGeometry>
        </mxCell>
        <mxCell id="HU9QyjZtkQBuaY1ddd4f-81" value="Tiene" style="rhombus;whiteSpace=wrap;html=1;fillColor=#d0cee2;strokeColor=#56517e;" vertex="1" parent="1">
          <mxGeometry x="-40" y="-1230" width="80" height="80" as="geometry" />
        </mxCell>
        <mxCell id="HU9QyjZtkQBuaY1ddd4f-94" style="edgeStyle=orthogonalEdgeStyle;rounded=0;orthogonalLoop=1;jettySize=auto;html=1;entryX=0;entryY=0.5;entryDx=0;entryDy=0;endArrow=none;endFill=0;" edge="1" parent="1" source="HU9QyjZtkQBuaY1ddd4f-82" target="HU9QyjZtkQBuaY1ddd4f-88">
          <mxGeometry relative="1" as="geometry" />
        </mxCell>
        <mxCell id="HU9QyjZtkQBuaY1ddd4f-95" style="edgeStyle=orthogonalEdgeStyle;rounded=0;orthogonalLoop=1;jettySize=auto;html=1;entryX=0;entryY=0.5;entryDx=0;entryDy=0;endArrow=none;endFill=0;" edge="1" parent="1" source="HU9QyjZtkQBuaY1ddd4f-82" target="HU9QyjZtkQBuaY1ddd4f-87">
          <mxGeometry relative="1" as="geometry" />
        </mxCell>
        <mxCell id="HU9QyjZtkQBuaY1ddd4f-96" style="edgeStyle=orthogonalEdgeStyle;rounded=0;orthogonalLoop=1;jettySize=auto;html=1;entryX=0;entryY=0.5;entryDx=0;entryDy=0;endArrow=none;endFill=0;" edge="1" parent="1" source="HU9QyjZtkQBuaY1ddd4f-82" target="HU9QyjZtkQBuaY1ddd4f-86">
          <mxGeometry relative="1" as="geometry" />
        </mxCell>
        <mxCell id="HU9QyjZtkQBuaY1ddd4f-97" style="edgeStyle=orthogonalEdgeStyle;rounded=0;orthogonalLoop=1;jettySize=auto;html=1;entryX=0;entryY=0.5;entryDx=0;entryDy=0;endArrow=none;endFill=0;" edge="1" parent="1" source="HU9QyjZtkQBuaY1ddd4f-82" target="HU9QyjZtkQBuaY1ddd4f-85">
          <mxGeometry relative="1" as="geometry" />
        </mxCell>
        <mxCell id="HU9QyjZtkQBuaY1ddd4f-98" style="edgeStyle=orthogonalEdgeStyle;rounded=0;orthogonalLoop=1;jettySize=auto;html=1;entryX=0;entryY=0.5;entryDx=0;entryDy=0;endArrow=none;endFill=0;" edge="1" parent="1" source="HU9QyjZtkQBuaY1ddd4f-82" target="HU9QyjZtkQBuaY1ddd4f-91">
          <mxGeometry relative="1" as="geometry" />
        </mxCell>
        <mxCell id="HU9QyjZtkQBuaY1ddd4f-99" style="edgeStyle=orthogonalEdgeStyle;rounded=0;orthogonalLoop=1;jettySize=auto;html=1;entryX=0;entryY=0.5;entryDx=0;entryDy=0;endArrow=none;endFill=0;" edge="1" parent="1" source="HU9QyjZtkQBuaY1ddd4f-82" target="HU9QyjZtkQBuaY1ddd4f-90">
          <mxGeometry relative="1" as="geometry" />
        </mxCell>
        <mxCell id="HU9QyjZtkQBuaY1ddd4f-100" style="edgeStyle=orthogonalEdgeStyle;rounded=0;orthogonalLoop=1;jettySize=auto;html=1;entryX=0;entryY=0.5;entryDx=0;entryDy=0;endArrow=none;endFill=0;" edge="1" parent="1" source="HU9QyjZtkQBuaY1ddd4f-82" target="HU9QyjZtkQBuaY1ddd4f-89">
          <mxGeometry relative="1" as="geometry" />
        </mxCell>
        <mxCell id="HU9QyjZtkQBuaY1ddd4f-82" value="Personal" style="rounded=0;whiteSpace=wrap;html=1;fillColor=#f5f5f5;fontColor=#333333;strokeColor=#666666;" vertex="1" parent="1">
          <mxGeometry x="180" y="-1070" width="120" height="60" as="geometry" />
        </mxCell>
        <mxCell id="HU9QyjZtkQBuaY1ddd4f-85" value="Edad" style="ellipse;whiteSpace=wrap;html=1;fillColor=#f5f5f5;fontColor=#333333;strokeColor=#666666;" vertex="1" parent="1">
          <mxGeometry x="440" y="-980" width="120" height="80" as="geometry" />
        </mxCell>
        <mxCell id="HU9QyjZtkQBuaY1ddd4f-86" value="Nombre" style="ellipse;whiteSpace=wrap;html=1;fillColor=#f5f5f5;fontColor=#333333;strokeColor=#666666;" vertex="1" parent="1">
          <mxGeometry x="440" y="-1080" width="120" height="80" as="geometry" />
        </mxCell>
        <mxCell id="HU9QyjZtkQBuaY1ddd4f-87" value="Contrato" style="ellipse;whiteSpace=wrap;html=1;fillColor=#f5f5f5;fontColor=#333333;strokeColor=#666666;" vertex="1" parent="1">
          <mxGeometry x="440" y="-1180" width="120" height="80" as="geometry" />
        </mxCell>
        <mxCell id="HU9QyjZtkQBuaY1ddd4f-88" value="Recomendación" style="ellipse;whiteSpace=wrap;html=1;fillColor=#f5f5f5;fontColor=#333333;strokeColor=#666666;" vertex="1" parent="1">
          <mxGeometry x="440" y="-1280" width="120" height="80" as="geometry" />
        </mxCell>
        <mxCell id="HU9QyjZtkQBuaY1ddd4f-89" value="Id personal" style="ellipse;whiteSpace=wrap;html=1;fillColor=#f5f5f5;fontColor=#333333;strokeColor=#666666;" vertex="1" parent="1">
          <mxGeometry x="440" y="-670" width="120" height="80" as="geometry" />
        </mxCell>
        <mxCell id="HU9QyjZtkQBuaY1ddd4f-90" value="Reconocimiento" style="ellipse;whiteSpace=wrap;html=1;fillColor=#f5f5f5;fontColor=#333333;strokeColor=#666666;" vertex="1" parent="1">
          <mxGeometry x="440" y="-770" width="120" height="80" as="geometry" />
        </mxCell>
        <mxCell id="HU9QyjZtkQBuaY1ddd4f-91" value="Experiencia laboral" style="ellipse;whiteSpace=wrap;html=1;fillColor=#f5f5f5;fontColor=#333333;strokeColor=#666666;" vertex="1" parent="1">
          <mxGeometry x="440" y="-880" width="120" height="80" as="geometry" />
        </mxCell>
        <mxCell id="HU9QyjZtkQBuaY1ddd4f-92" value="Id centro comercial" style="ellipse;whiteSpace=wrap;html=1;fillColor=#b0e3e6;strokeColor=#0e8088;" vertex="1" parent="1">
          <mxGeometry x="-640" y="-820" width="120" height="80" as="geometry" />
        </mxCell>
        <mxCell id="HU9QyjZtkQBuaY1ddd4f-107" style="edgeStyle=orthogonalEdgeStyle;rounded=0;orthogonalLoop=1;jettySize=auto;html=1;entryX=0.5;entryY=0;entryDx=0;entryDy=0;endArrow=none;endFill=0;" edge="1" parent="1" source="HU9QyjZtkQBuaY1ddd4f-101" target="HU9QyjZtkQBuaY1ddd4f-105">
          <mxGeometry relative="1" as="geometry" />
        </mxCell>
        <mxCell id="HU9QyjZtkQBuaY1ddd4f-108" style="edgeStyle=orthogonalEdgeStyle;rounded=0;orthogonalLoop=1;jettySize=auto;html=1;entryX=0.5;entryY=0;entryDx=0;entryDy=0;endArrow=none;endFill=0;" edge="1" parent="1" source="HU9QyjZtkQBuaY1ddd4f-101" target="HU9QyjZtkQBuaY1ddd4f-104">
          <mxGeometry relative="1" as="geometry" />
        </mxCell>
        <mxCell id="HU9QyjZtkQBuaY1ddd4f-109" style="edgeStyle=orthogonalEdgeStyle;rounded=0;orthogonalLoop=1;jettySize=auto;html=1;entryX=0.5;entryY=0;entryDx=0;entryDy=0;endArrow=none;endFill=0;" edge="1" parent="1" source="HU9QyjZtkQBuaY1ddd4f-101" target="HU9QyjZtkQBuaY1ddd4f-103">
          <mxGeometry relative="1" as="geometry" />
        </mxCell>
        <mxCell id="HU9QyjZtkQBuaY1ddd4f-110" style="edgeStyle=orthogonalEdgeStyle;rounded=0;orthogonalLoop=1;jettySize=auto;html=1;entryX=0.5;entryY=0;entryDx=0;entryDy=0;endArrow=none;endFill=0;" edge="1" parent="1" source="HU9QyjZtkQBuaY1ddd4f-101" target="HU9QyjZtkQBuaY1ddd4f-102">
          <mxGeometry relative="1" as="geometry" />
        </mxCell>
        <mxCell id="HU9QyjZtkQBuaY1ddd4f-111" style="edgeStyle=orthogonalEdgeStyle;rounded=0;orthogonalLoop=1;jettySize=auto;html=1;entryX=0.5;entryY=0;entryDx=0;entryDy=0;endArrow=none;endFill=0;" edge="1" parent="1" source="HU9QyjZtkQBuaY1ddd4f-101" target="HU9QyjZtkQBuaY1ddd4f-106">
          <mxGeometry relative="1" as="geometry" />
        </mxCell>
        <mxCell id="HU9QyjZtkQBuaY1ddd4f-101" value="Hospital" style="rounded=0;whiteSpace=wrap;html=1;fillColor=#bac8d3;strokeColor=#23445d;" vertex="1" parent="1">
          <mxGeometry x="2050" y="-1704" width="120" height="60" as="geometry" />
        </mxCell>
        <mxCell id="HU9QyjZtkQBuaY1ddd4f-102" value="Id Medico" style="ellipse;whiteSpace=wrap;html=1;fillColor=#bac8d3;strokeColor=#23445d;" vertex="1" parent="1">
          <mxGeometry x="2120" y="-1480" width="120" height="80" as="geometry" />
        </mxCell>
        <mxCell id="HU9QyjZtkQBuaY1ddd4f-103" value="Administración&amp;nbsp;" style="ellipse;whiteSpace=wrap;html=1;fillColor=#bac8d3;strokeColor=#23445d;" vertex="1" parent="1">
          <mxGeometry x="1970" y="-1480" width="120" height="80" as="geometry" />
        </mxCell>
        <mxCell id="HU9QyjZtkQBuaY1ddd4f-104" value="Dirección" style="ellipse;whiteSpace=wrap;html=1;fillColor=#bac8d3;strokeColor=#23445d;" vertex="1" parent="1">
          <mxGeometry x="1820" y="-1480" width="120" height="80" as="geometry" />
        </mxCell>
        <mxCell id="HU9QyjZtkQBuaY1ddd4f-105" value="Id Hospital" style="ellipse;whiteSpace=wrap;html=1;fillColor=#bac8d3;strokeColor=#23445d;" vertex="1" parent="1">
          <mxGeometry x="1670" y="-1480" width="120" height="80" as="geometry" />
        </mxCell>
        <mxCell id="HU9QyjZtkQBuaY1ddd4f-106" value="Id Paciente" style="ellipse;whiteSpace=wrap;html=1;fillColor=#bac8d3;strokeColor=#23445d;" vertex="1" parent="1">
          <mxGeometry x="2270" y="-1480" width="120" height="80" as="geometry" />
        </mxCell>
        <mxCell id="HU9QyjZtkQBuaY1ddd4f-114" style="edgeStyle=orthogonalEdgeStyle;rounded=0;orthogonalLoop=1;jettySize=auto;html=1;entryX=0.5;entryY=0;entryDx=0;entryDy=0;endArrow=ERoneToMany;endFill=0;" edge="1" parent="1" source="HU9QyjZtkQBuaY1ddd4f-112" target="HU9QyjZtkQBuaY1ddd4f-101">
          <mxGeometry relative="1" as="geometry" />
        </mxCell>
        <mxCell id="HU9QyjZtkQBuaY1ddd4f-115" style="edgeStyle=orthogonalEdgeStyle;rounded=0;orthogonalLoop=1;jettySize=auto;html=1;endArrow=ERoneToMany;endFill=0;" edge="1" parent="1" source="HU9QyjZtkQBuaY1ddd4f-112" target="HU9QyjZtkQBuaY1ddd4f-113">
          <mxGeometry relative="1" as="geometry" />
        </mxCell>
        <mxCell id="HU9QyjZtkQBuaY1ddd4f-112" value="Tiene" style="rhombus;whiteSpace=wrap;html=1;fillColor=#b0e3e6;strokeColor=#0e8088;" vertex="1" parent="1">
          <mxGeometry x="2070" y="-1962" width="80" height="80" as="geometry" />
        </mxCell>
        <mxCell id="HU9QyjZtkQBuaY1ddd4f-121" style="edgeStyle=orthogonalEdgeStyle;rounded=0;orthogonalLoop=1;jettySize=auto;html=1;entryX=0.5;entryY=1;entryDx=0;entryDy=0;endArrow=none;endFill=0;" edge="1" parent="1" source="HU9QyjZtkQBuaY1ddd4f-113" target="HU9QyjZtkQBuaY1ddd4f-120">
          <mxGeometry relative="1" as="geometry" />
        </mxCell>
        <mxCell id="HU9QyjZtkQBuaY1ddd4f-122" style="edgeStyle=orthogonalEdgeStyle;rounded=0;orthogonalLoop=1;jettySize=auto;html=1;endArrow=none;endFill=0;" edge="1" parent="1" source="HU9QyjZtkQBuaY1ddd4f-113" target="HU9QyjZtkQBuaY1ddd4f-119">
          <mxGeometry relative="1" as="geometry" />
        </mxCell>
        <mxCell id="HU9QyjZtkQBuaY1ddd4f-123" style="edgeStyle=orthogonalEdgeStyle;rounded=0;orthogonalLoop=1;jettySize=auto;html=1;endArrow=none;endFill=0;" edge="1" parent="1" source="HU9QyjZtkQBuaY1ddd4f-113" target="HU9QyjZtkQBuaY1ddd4f-118">
          <mxGeometry relative="1" as="geometry" />
        </mxCell>
        <mxCell id="HU9QyjZtkQBuaY1ddd4f-124" style="edgeStyle=orthogonalEdgeStyle;rounded=0;orthogonalLoop=1;jettySize=auto;html=1;endArrow=none;endFill=0;" edge="1" parent="1" source="HU9QyjZtkQBuaY1ddd4f-113" target="HU9QyjZtkQBuaY1ddd4f-117">
          <mxGeometry relative="1" as="geometry" />
        </mxCell>
        <mxCell id="HU9QyjZtkQBuaY1ddd4f-125" style="edgeStyle=orthogonalEdgeStyle;rounded=0;orthogonalLoop=1;jettySize=auto;html=1;endArrow=none;endFill=0;" edge="1" parent="1" target="HU9QyjZtkQBuaY1ddd4f-116">
          <mxGeometry relative="1" as="geometry">
            <mxPoint x="2170" y="-2171" as="sourcePoint" />
            <mxPoint x="2390" y="-2381" as="targetPoint" />
          </mxGeometry>
        </mxCell>
        <mxCell id="HU9QyjZtkQBuaY1ddd4f-113" value="Medico" style="rounded=0;whiteSpace=wrap;html=1;fillColor=#fad9d5;strokeColor=#ae4132;" vertex="1" parent="1">
          <mxGeometry x="2050" y="-2200" width="120" height="60" as="geometry" />
        </mxCell>
        <mxCell id="HU9QyjZtkQBuaY1ddd4f-116" value="FechNac" style="ellipse;whiteSpace=wrap;html=1;fillColor=#fad9d5;strokeColor=#ae4132;" vertex="1" parent="1">
          <mxGeometry x="2330" y="-2460" width="120" height="80" as="geometry" />
        </mxCell>
        <mxCell id="HU9QyjZtkQBuaY1ddd4f-117" value="Edad" style="ellipse;whiteSpace=wrap;html=1;fillColor=#fad9d5;strokeColor=#ae4132;" vertex="1" parent="1">
          <mxGeometry x="2190" y="-2460" width="120" height="80" as="geometry" />
        </mxCell>
        <mxCell id="HU9QyjZtkQBuaY1ddd4f-118" value="Horario" style="ellipse;whiteSpace=wrap;html=1;fillColor=#fad9d5;strokeColor=#ae4132;" vertex="1" parent="1">
          <mxGeometry x="2050" y="-2460" width="120" height="80" as="geometry" />
        </mxCell>
        <mxCell id="HU9QyjZtkQBuaY1ddd4f-119" value="Nombre" style="ellipse;whiteSpace=wrap;html=1;fillColor=#fad9d5;strokeColor=#ae4132;" vertex="1" parent="1">
          <mxGeometry x="1910" y="-2460" width="120" height="80" as="geometry" />
        </mxCell>
        <mxCell id="HU9QyjZtkQBuaY1ddd4f-120" value="Id Medico" style="ellipse;whiteSpace=wrap;html=1;fillColor=#fad9d5;strokeColor=#ae4132;" vertex="1" parent="1">
          <mxGeometry x="1770" y="-2460" width="120" height="80" as="geometry" />
        </mxCell>
        <mxCell id="HU9QyjZtkQBuaY1ddd4f-127" style="edgeStyle=orthogonalEdgeStyle;rounded=0;orthogonalLoop=1;jettySize=auto;html=1;entryX=1;entryY=0.5;entryDx=0;entryDy=0;endArrow=ERone;endFill=0;" edge="1" parent="1" source="HU9QyjZtkQBuaY1ddd4f-126" target="HU9QyjZtkQBuaY1ddd4f-113">
          <mxGeometry relative="1" as="geometry" />
        </mxCell>
        <mxCell id="HU9QyjZtkQBuaY1ddd4f-129" style="edgeStyle=orthogonalEdgeStyle;rounded=0;orthogonalLoop=1;jettySize=auto;html=1;entryX=0;entryY=0.5;entryDx=0;entryDy=0;endArrow=ERmany;endFill=0;" edge="1" parent="1" source="HU9QyjZtkQBuaY1ddd4f-126" target="HU9QyjZtkQBuaY1ddd4f-128">
          <mxGeometry relative="1" as="geometry" />
        </mxCell>
        <mxCell id="HU9QyjZtkQBuaY1ddd4f-126" value="Tiene" style="rhombus;whiteSpace=wrap;html=1;fillColor=#dae8fc;strokeColor=#6c8ebf;" vertex="1" parent="1">
          <mxGeometry x="2610" y="-1990" width="80" height="80" as="geometry" />
        </mxCell>
        <mxCell id="HU9QyjZtkQBuaY1ddd4f-134" style="edgeStyle=orthogonalEdgeStyle;rounded=0;orthogonalLoop=1;jettySize=auto;html=1;entryX=0;entryY=0.5;entryDx=0;entryDy=0;endArrow=none;endFill=0;" edge="1" parent="1" source="HU9QyjZtkQBuaY1ddd4f-128" target="HU9QyjZtkQBuaY1ddd4f-133">
          <mxGeometry relative="1" as="geometry" />
        </mxCell>
        <mxCell id="HU9QyjZtkQBuaY1ddd4f-135" style="edgeStyle=orthogonalEdgeStyle;rounded=0;orthogonalLoop=1;jettySize=auto;html=1;entryX=0;entryY=0.5;entryDx=0;entryDy=0;endArrow=none;endFill=0;" edge="1" parent="1" source="HU9QyjZtkQBuaY1ddd4f-128" target="HU9QyjZtkQBuaY1ddd4f-132">
          <mxGeometry relative="1" as="geometry" />
        </mxCell>
        <mxCell id="HU9QyjZtkQBuaY1ddd4f-136" style="edgeStyle=orthogonalEdgeStyle;rounded=0;orthogonalLoop=1;jettySize=auto;html=1;entryX=0;entryY=0.5;entryDx=0;entryDy=0;endArrow=none;endFill=0;" edge="1" parent="1" source="HU9QyjZtkQBuaY1ddd4f-128" target="HU9QyjZtkQBuaY1ddd4f-131">
          <mxGeometry relative="1" as="geometry" />
        </mxCell>
        <mxCell id="HU9QyjZtkQBuaY1ddd4f-137" style="edgeStyle=orthogonalEdgeStyle;rounded=0;orthogonalLoop=1;jettySize=auto;html=1;entryX=0;entryY=0.5;entryDx=0;entryDy=0;endArrow=none;endFill=0;" edge="1" parent="1" source="HU9QyjZtkQBuaY1ddd4f-128" target="HU9QyjZtkQBuaY1ddd4f-130">
          <mxGeometry relative="1" as="geometry" />
        </mxCell>
        <mxCell id="HU9QyjZtkQBuaY1ddd4f-140" style="edgeStyle=orthogonalEdgeStyle;rounded=0;orthogonalLoop=1;jettySize=auto;html=1;entryX=0;entryY=0.5;entryDx=0;entryDy=0;endArrow=none;endFill=0;" edge="1" parent="1" source="HU9QyjZtkQBuaY1ddd4f-128" target="HU9QyjZtkQBuaY1ddd4f-139">
          <mxGeometry relative="1" as="geometry" />
        </mxCell>
        <mxCell id="HU9QyjZtkQBuaY1ddd4f-141" style="edgeStyle=orthogonalEdgeStyle;rounded=0;orthogonalLoop=1;jettySize=auto;html=1;entryX=0;entryY=0.5;entryDx=0;entryDy=0;endArrow=none;endFill=0;" edge="1" parent="1" source="HU9QyjZtkQBuaY1ddd4f-128" target="HU9QyjZtkQBuaY1ddd4f-138">
          <mxGeometry relative="1" as="geometry" />
        </mxCell>
        <mxCell id="HU9QyjZtkQBuaY1ddd4f-128" value="Paciente" style="rounded=0;whiteSpace=wrap;html=1;fillColor=#f8cecc;strokeColor=#b85450;" vertex="1" parent="1">
          <mxGeometry x="2870" y="-1980" width="120" height="60" as="geometry" />
        </mxCell>
        <mxCell id="HU9QyjZtkQBuaY1ddd4f-130" value="Dirección" style="ellipse;whiteSpace=wrap;html=1;fillColor=#f8cecc;strokeColor=#b85450;" vertex="1" parent="1">
          <mxGeometry x="3130" y="-1840" width="120" height="80" as="geometry" />
        </mxCell>
        <mxCell id="HU9QyjZtkQBuaY1ddd4f-131" value="N° Telefónico" style="ellipse;whiteSpace=wrap;html=1;fillColor=#f8cecc;strokeColor=#b85450;" vertex="1" parent="1">
          <mxGeometry x="3130" y="-1940" width="120" height="80" as="geometry" />
        </mxCell>
        <mxCell id="HU9QyjZtkQBuaY1ddd4f-132" value="Nombre" style="ellipse;whiteSpace=wrap;html=1;fillColor=#f8cecc;strokeColor=#b85450;" vertex="1" parent="1">
          <mxGeometry x="3130" y="-2040" width="120" height="80" as="geometry" />
        </mxCell>
        <mxCell id="HU9QyjZtkQBuaY1ddd4f-133" value="Id Paciente" style="ellipse;whiteSpace=wrap;html=1;fillColor=#f8cecc;strokeColor=#b85450;" vertex="1" parent="1">
          <mxGeometry x="3130" y="-2140" width="120" height="80" as="geometry" />
        </mxCell>
        <mxCell id="HU9QyjZtkQBuaY1ddd4f-138" value="Genero" style="ellipse;whiteSpace=wrap;html=1;fillColor=#f8cecc;strokeColor=#b85450;" vertex="1" parent="1">
          <mxGeometry x="3130" y="-2240" width="120" height="80" as="geometry" />
        </mxCell>
        <mxCell id="HU9QyjZtkQBuaY1ddd4f-139" value="FechNac" style="ellipse;whiteSpace=wrap;html=1;fillColor=#f8cecc;strokeColor=#b85450;" vertex="1" parent="1">
          <mxGeometry x="3130" y="-1740" width="120" height="80" as="geometry" />
        </mxCell>
        <mxCell id="HU9QyjZtkQBuaY1ddd4f-153" style="edgeStyle=orthogonalEdgeStyle;rounded=0;orthogonalLoop=1;jettySize=auto;html=1;entryX=1;entryY=0.5;entryDx=0;entryDy=0;endArrow=none;endFill=0;" edge="1" parent="1" source="HU9QyjZtkQBuaY1ddd4f-143" target="HU9QyjZtkQBuaY1ddd4f-145">
          <mxGeometry relative="1" as="geometry" />
        </mxCell>
        <mxCell id="HU9QyjZtkQBuaY1ddd4f-154" style="edgeStyle=orthogonalEdgeStyle;rounded=0;orthogonalLoop=1;jettySize=auto;html=1;entryX=0.5;entryY=1;entryDx=0;entryDy=0;endArrow=none;endFill=0;startArrow=ERoneToMany;startFill=0;" edge="1" parent="1" source="HU9QyjZtkQBuaY1ddd4f-143" target="HU9QyjZtkQBuaY1ddd4f-148">
          <mxGeometry relative="1" as="geometry" />
        </mxCell>
        <mxCell id="HU9QyjZtkQBuaY1ddd4f-143" value="Tienda de mascotas" style="rounded=0;whiteSpace=wrap;html=1;fillColor=#f9f7ed;strokeColor=#36393d;" vertex="1" parent="1">
          <mxGeometry x="2600" y="-346" width="120" height="60" as="geometry" />
        </mxCell>
        <mxCell id="HU9QyjZtkQBuaY1ddd4f-144" value="Precio" style="ellipse;whiteSpace=wrap;html=1;fillColor=#cdeb8b;strokeColor=#36393d;" vertex="1" parent="1">
          <mxGeometry x="2387.5" y="-800" width="120" height="80" as="geometry" />
        </mxCell>
        <mxCell id="HU9QyjZtkQBuaY1ddd4f-145" value="Id tienda de mascotas&amp;nbsp;" style="ellipse;whiteSpace=wrap;html=1;fillColor=#f9f7ed;strokeColor=#36393d;" vertex="1" parent="1">
          <mxGeometry x="2400" y="-356" width="120" height="80" as="geometry" />
        </mxCell>
        <mxCell id="HU9QyjZtkQBuaY1ddd4f-146" value="Id producto" style="ellipse;whiteSpace=wrap;html=1;fillColor=#cdeb8b;strokeColor=#36393d;" vertex="1" parent="1">
          <mxGeometry x="2387.5" y="-910" width="120" height="80" as="geometry" />
        </mxCell>
        <mxCell id="HU9QyjZtkQBuaY1ddd4f-147" value="Apellido P" style="ellipse;whiteSpace=wrap;html=1;fillColor=#ffcccc;strokeColor=#36393d;" vertex="1" parent="1">
          <mxGeometry x="3400" y="-355" width="120" height="80" as="geometry" />
        </mxCell>
        <mxCell id="HU9QyjZtkQBuaY1ddd4f-158" style="edgeStyle=orthogonalEdgeStyle;rounded=0;orthogonalLoop=1;jettySize=auto;html=1;entryX=0.5;entryY=1;entryDx=0;entryDy=0;endArrow=ERmany;endFill=0;" edge="1" parent="1" source="HU9QyjZtkQBuaY1ddd4f-148" target="HU9QyjZtkQBuaY1ddd4f-155">
          <mxGeometry relative="1" as="geometry" />
        </mxCell>
        <mxCell id="HU9QyjZtkQBuaY1ddd4f-148" value="Tiene" style="rhombus;whiteSpace=wrap;html=1;fillColor=#bac8d3;strokeColor=#23445d;" vertex="1" parent="1">
          <mxGeometry x="2620" y="-540" width="80" height="80" as="geometry" />
        </mxCell>
        <mxCell id="HU9QyjZtkQBuaY1ddd4f-163" style="edgeStyle=orthogonalEdgeStyle;rounded=0;orthogonalLoop=1;jettySize=auto;html=1;entryX=0;entryY=0.5;entryDx=0;entryDy=0;exitX=1;exitY=0.5;exitDx=0;exitDy=0;endArrow=none;endFill=0;" edge="1" parent="1" source="HU9QyjZtkQBuaY1ddd4f-149" target="HU9QyjZtkQBuaY1ddd4f-152">
          <mxGeometry relative="1" as="geometry">
            <mxPoint x="3359.999999999999" y="-420" as="sourcePoint" />
          </mxGeometry>
        </mxCell>
        <mxCell id="HU9QyjZtkQBuaY1ddd4f-164" style="edgeStyle=orthogonalEdgeStyle;rounded=0;orthogonalLoop=1;jettySize=auto;html=1;entryX=0;entryY=0.5;entryDx=0;entryDy=0;endArrow=none;endFill=0;" edge="1" parent="1" source="HU9QyjZtkQBuaY1ddd4f-149" target="HU9QyjZtkQBuaY1ddd4f-151">
          <mxGeometry relative="1" as="geometry">
            <mxPoint x="3359.999999999999" y="-420" as="sourcePoint" />
          </mxGeometry>
        </mxCell>
        <mxCell id="HU9QyjZtkQBuaY1ddd4f-165" style="edgeStyle=orthogonalEdgeStyle;rounded=0;orthogonalLoop=1;jettySize=auto;html=1;entryX=0;entryY=0.5;entryDx=0;entryDy=0;endArrow=none;endFill=0;" edge="1" parent="1" source="HU9QyjZtkQBuaY1ddd4f-149" target="HU9QyjZtkQBuaY1ddd4f-150">
          <mxGeometry relative="1" as="geometry">
            <mxPoint x="3359.999999999999" y="-420" as="sourcePoint" />
          </mxGeometry>
        </mxCell>
        <mxCell id="HU9QyjZtkQBuaY1ddd4f-166" style="edgeStyle=orthogonalEdgeStyle;rounded=0;orthogonalLoop=1;jettySize=auto;html=1;entryX=0;entryY=0.5;entryDx=0;entryDy=0;endArrow=none;endFill=0;" edge="1" parent="1" source="HU9QyjZtkQBuaY1ddd4f-149" target="HU9QyjZtkQBuaY1ddd4f-147">
          <mxGeometry relative="1" as="geometry">
            <mxPoint x="3359.999999999999" y="-420" as="sourcePoint" />
          </mxGeometry>
        </mxCell>
        <mxCell id="HU9QyjZtkQBuaY1ddd4f-168" style="edgeStyle=orthogonalEdgeStyle;rounded=0;orthogonalLoop=1;jettySize=auto;html=1;entryX=0;entryY=0.5;entryDx=0;entryDy=0;endArrow=none;endFill=0;" edge="1" parent="1" source="HU9QyjZtkQBuaY1ddd4f-149" target="HU9QyjZtkQBuaY1ddd4f-167">
          <mxGeometry relative="1" as="geometry" />
        </mxCell>
        <mxCell id="HU9QyjZtkQBuaY1ddd4f-149" value="Cliente" style="rounded=0;whiteSpace=wrap;html=1;fillColor=#ffcccc;strokeColor=#36393d;" vertex="1" parent="1">
          <mxGeometry x="3130" y="-430" width="120" height="60" as="geometry" />
        </mxCell>
        <mxCell id="HU9QyjZtkQBuaY1ddd4f-150" value="N° telefónico" style="ellipse;whiteSpace=wrap;html=1;fillColor=#ffcccc;strokeColor=#36393d;" vertex="1" parent="1">
          <mxGeometry x="3400" y="-456" width="120" height="80" as="geometry" />
        </mxCell>
        <mxCell id="HU9QyjZtkQBuaY1ddd4f-151" value="Nombre" style="ellipse;whiteSpace=wrap;html=1;fillColor=#ffcccc;strokeColor=#36393d;" vertex="1" parent="1">
          <mxGeometry x="3400" y="-550" width="120" height="80" as="geometry" />
        </mxCell>
        <mxCell id="HU9QyjZtkQBuaY1ddd4f-152" value="Id cliente" style="ellipse;whiteSpace=wrap;html=1;fillColor=#ffcccc;strokeColor=#36393d;" vertex="1" parent="1">
          <mxGeometry x="3400" y="-660" width="120" height="80" as="geometry" />
        </mxCell>
        <mxCell id="HU9QyjZtkQBuaY1ddd4f-156" style="edgeStyle=orthogonalEdgeStyle;rounded=0;orthogonalLoop=1;jettySize=auto;html=1;entryX=0;entryY=0.5;entryDx=0;entryDy=0;endArrow=none;endFill=0;exitX=0;exitY=0.5;exitDx=0;exitDy=0;" edge="1" parent="1" source="HU9QyjZtkQBuaY1ddd4f-155" target="HU9QyjZtkQBuaY1ddd4f-146">
          <mxGeometry relative="1" as="geometry">
            <mxPoint x="2272.5" y="-700.0000000000005" as="sourcePoint" />
          </mxGeometry>
        </mxCell>
        <mxCell id="HU9QyjZtkQBuaY1ddd4f-157" style="edgeStyle=orthogonalEdgeStyle;rounded=0;orthogonalLoop=1;jettySize=auto;html=1;entryX=0;entryY=0.5;entryDx=0;entryDy=0;endArrow=none;endFill=0;exitX=0;exitY=0.5;exitDx=0;exitDy=0;" edge="1" parent="1" source="HU9QyjZtkQBuaY1ddd4f-155" target="HU9QyjZtkQBuaY1ddd4f-144">
          <mxGeometry relative="1" as="geometry">
            <mxPoint x="2272.5" y="-700.0000000000005" as="sourcePoint" />
          </mxGeometry>
        </mxCell>
        <mxCell id="HU9QyjZtkQBuaY1ddd4f-155" value="Producto" style="rounded=1;whiteSpace=wrap;html=1;fillColor=#cdeb8b;strokeColor=#36393d;" vertex="1" parent="1">
          <mxGeometry x="2600" y="-700" width="120" height="60" as="geometry" />
        </mxCell>
        <mxCell id="HU9QyjZtkQBuaY1ddd4f-160" style="edgeStyle=orthogonalEdgeStyle;rounded=0;orthogonalLoop=1;jettySize=auto;html=1;entryX=1;entryY=0.5;entryDx=0;entryDy=0;endArrow=ERmany;endFill=0;" edge="1" parent="1" source="HU9QyjZtkQBuaY1ddd4f-159" target="HU9QyjZtkQBuaY1ddd4f-143">
          <mxGeometry relative="1" as="geometry" />
        </mxCell>
        <mxCell id="HU9QyjZtkQBuaY1ddd4f-162" style="edgeStyle=orthogonalEdgeStyle;rounded=0;orthogonalLoop=1;jettySize=auto;html=1;entryX=0;entryY=0.5;entryDx=0;entryDy=0;endArrow=ERmany;endFill=0;" edge="1" parent="1" source="HU9QyjZtkQBuaY1ddd4f-159" target="HU9QyjZtkQBuaY1ddd4f-149">
          <mxGeometry relative="1" as="geometry" />
        </mxCell>
        <mxCell id="HU9QyjZtkQBuaY1ddd4f-159" value="Tiene" style="rhombus;whiteSpace=wrap;html=1;fillColor=#bac8d3;strokeColor=#23445d;" vertex="1" parent="1">
          <mxGeometry x="2910" y="-510" width="80" height="80" as="geometry" />
        </mxCell>
        <mxCell id="HU9QyjZtkQBuaY1ddd4f-167" value="Apellido M" style="ellipse;whiteSpace=wrap;html=1;fillColor=#ffcccc;strokeColor=#36393d;" vertex="1" parent="1">
          <mxGeometry x="3400" y="-255" width="120" height="80" as="geometry" />
        </mxCell>
        <mxCell id="HU9QyjZtkQBuaY1ddd4f-172" style="edgeStyle=orthogonalEdgeStyle;rounded=0;orthogonalLoop=1;jettySize=auto;html=1;entryX=1;entryY=0.5;entryDx=0;entryDy=0;endArrow=ERoneToMany;endFill=0;" edge="1" parent="1" source="HU9QyjZtkQBuaY1ddd4f-169" target="HU9QyjZtkQBuaY1ddd4f-170">
          <mxGeometry relative="1" as="geometry" />
        </mxCell>
        <mxCell id="HU9QyjZtkQBuaY1ddd4f-175" style="edgeStyle=orthogonalEdgeStyle;rounded=0;orthogonalLoop=1;jettySize=auto;html=1;entryX=0.5;entryY=1;entryDx=0;entryDy=0;endArrow=ERoneToMany;endFill=0;" edge="1" parent="1" source="HU9QyjZtkQBuaY1ddd4f-169" target="HU9QyjZtkQBuaY1ddd4f-149">
          <mxGeometry relative="1" as="geometry" />
        </mxCell>
        <mxCell id="HU9QyjZtkQBuaY1ddd4f-169" value="Tiene" style="rhombus;whiteSpace=wrap;html=1;fillColor=#bac8d3;strokeColor=#23445d;" vertex="1" parent="1">
          <mxGeometry x="3150" y="-195" width="80" height="80" as="geometry" />
        </mxCell>
        <mxCell id="HU9QyjZtkQBuaY1ddd4f-181" value="" style="edgeStyle=orthogonalEdgeStyle;rounded=0;orthogonalLoop=1;jettySize=auto;html=1;endArrow=none;endFill=0;" edge="1" parent="1" source="HU9QyjZtkQBuaY1ddd4f-170">
          <mxGeometry relative="1" as="geometry">
            <mxPoint x="2950" y="50" as="targetPoint" />
          </mxGeometry>
        </mxCell>
        <mxCell id="HU9QyjZtkQBuaY1ddd4f-182" style="edgeStyle=orthogonalEdgeStyle;rounded=0;orthogonalLoop=1;jettySize=auto;html=1;endArrow=none;endFill=0;" edge="1" parent="1" source="HU9QyjZtkQBuaY1ddd4f-170" target="HU9QyjZtkQBuaY1ddd4f-180">
          <mxGeometry relative="1" as="geometry">
            <Array as="points">
              <mxPoint x="2940" y="-10" />
              <mxPoint x="3105" y="-10" />
              <mxPoint x="3105" y="5" />
            </Array>
          </mxGeometry>
        </mxCell>
        <mxCell id="HU9QyjZtkQBuaY1ddd4f-183" style="edgeStyle=orthogonalEdgeStyle;rounded=0;orthogonalLoop=1;jettySize=auto;html=1;endArrow=none;endFill=0;" edge="1" parent="1" source="HU9QyjZtkQBuaY1ddd4f-170" target="HU9QyjZtkQBuaY1ddd4f-176">
          <mxGeometry relative="1" as="geometry">
            <Array as="points">
              <mxPoint x="2940" y="-10" />
              <mxPoint x="3150" y="-10" />
            </Array>
          </mxGeometry>
        </mxCell>
        <mxCell id="HU9QyjZtkQBuaY1ddd4f-184" style="edgeStyle=orthogonalEdgeStyle;rounded=0;orthogonalLoop=1;jettySize=auto;html=1;endArrow=none;endFill=0;" edge="1" parent="1" source="HU9QyjZtkQBuaY1ddd4f-170" target="HU9QyjZtkQBuaY1ddd4f-177">
          <mxGeometry relative="1" as="geometry">
            <Array as="points">
              <mxPoint x="2940" y="-10" />
              <mxPoint x="2740" y="-10" />
            </Array>
          </mxGeometry>
        </mxCell>
        <mxCell id="HU9QyjZtkQBuaY1ddd4f-185" style="edgeStyle=orthogonalEdgeStyle;rounded=0;orthogonalLoop=1;jettySize=auto;html=1;endArrow=none;endFill=0;" edge="1" parent="1" source="HU9QyjZtkQBuaY1ddd4f-170" target="HU9QyjZtkQBuaY1ddd4f-179">
          <mxGeometry relative="1" as="geometry">
            <Array as="points">
              <mxPoint x="2940" y="-10" />
            </Array>
          </mxGeometry>
        </mxCell>
        <mxCell id="HU9QyjZtkQBuaY1ddd4f-170" value="Mascota" style="rounded=0;whiteSpace=wrap;html=1;fillColor=#eeeeee;strokeColor=#36393d;" vertex="1" parent="1">
          <mxGeometry x="2880" y="-85" width="120" height="60" as="geometry" />
        </mxCell>
        <mxCell id="HU9QyjZtkQBuaY1ddd4f-173" style="edgeStyle=orthogonalEdgeStyle;rounded=0;orthogonalLoop=1;jettySize=auto;html=1;entryX=0;entryY=0.5;entryDx=0;entryDy=0;endArrow=ERmany;endFill=0;" edge="1" parent="1" source="HU9QyjZtkQBuaY1ddd4f-171" target="HU9QyjZtkQBuaY1ddd4f-170">
          <mxGeometry relative="1" as="geometry" />
        </mxCell>
        <mxCell id="HU9QyjZtkQBuaY1ddd4f-174" style="edgeStyle=orthogonalEdgeStyle;rounded=0;orthogonalLoop=1;jettySize=auto;html=1;entryX=0.5;entryY=1;entryDx=0;entryDy=0;endArrow=ERone;endFill=0;" edge="1" parent="1" source="HU9QyjZtkQBuaY1ddd4f-171" target="HU9QyjZtkQBuaY1ddd4f-143">
          <mxGeometry relative="1" as="geometry" />
        </mxCell>
        <mxCell id="HU9QyjZtkQBuaY1ddd4f-171" value="Tiene" style="rhombus;whiteSpace=wrap;html=1;fillColor=#bac8d3;strokeColor=#23445d;" vertex="1" parent="1">
          <mxGeometry x="2620" y="-200" width="80" height="80" as="geometry" />
        </mxCell>
        <mxCell id="HU9QyjZtkQBuaY1ddd4f-176" value="Nombre" style="ellipse;whiteSpace=wrap;html=1;fillColor=#eeeeee;strokeColor=#36393d;" vertex="1" parent="1">
          <mxGeometry x="3090" y="45" width="120" height="80" as="geometry" />
        </mxCell>
        <mxCell id="HU9QyjZtkQBuaY1ddd4f-177" value="Edad" style="ellipse;whiteSpace=wrap;html=1;fillColor=#eeeeee;strokeColor=#36393d;" vertex="1" parent="1">
          <mxGeometry x="2680" y="45" width="120" height="80" as="geometry" />
        </mxCell>
        <mxCell id="HU9QyjZtkQBuaY1ddd4f-178" value="Genero" style="ellipse;whiteSpace=wrap;html=1;fillColor=#eeeeee;strokeColor=#36393d;" vertex="1" parent="1">
          <mxGeometry x="2890" y="45" width="120" height="80" as="geometry" />
        </mxCell>
        <mxCell id="HU9QyjZtkQBuaY1ddd4f-179" value="Especie" style="ellipse;whiteSpace=wrap;html=1;fillColor=#eeeeee;strokeColor=#36393d;" vertex="1" parent="1">
          <mxGeometry x="2560" y="-50" width="120" height="80" as="geometry" />
        </mxCell>
        <mxCell id="HU9QyjZtkQBuaY1ddd4f-180" value="Id mascota" style="ellipse;whiteSpace=wrap;html=1;fillColor=#eeeeee;strokeColor=#36393d;" vertex="1" parent="1">
          <mxGeometry x="3210" y="-35" width="120" height="80" as="geometry" />
        </mxCell>
        <mxCell id="HU9QyjZtkQBuaY1ddd4f-197" style="edgeStyle=orthogonalEdgeStyle;rounded=0;orthogonalLoop=1;jettySize=auto;html=1;entryX=0.5;entryY=1;entryDx=0;entryDy=0;endArrow=none;endFill=0;" edge="1" parent="1" source="HU9QyjZtkQBuaY1ddd4f-186" target="HU9QyjZtkQBuaY1ddd4f-193">
          <mxGeometry relative="1" as="geometry" />
        </mxCell>
        <mxCell id="HU9QyjZtkQBuaY1ddd4f-198" style="edgeStyle=orthogonalEdgeStyle;rounded=0;orthogonalLoop=1;jettySize=auto;html=1;entryX=0.5;entryY=1;entryDx=0;entryDy=0;endArrow=none;endFill=0;" edge="1" parent="1" source="HU9QyjZtkQBuaY1ddd4f-186" target="HU9QyjZtkQBuaY1ddd4f-195">
          <mxGeometry relative="1" as="geometry">
            <Array as="points">
              <mxPoint x="3190" y="-1050" />
              <mxPoint x="3368" y="-1050" />
            </Array>
          </mxGeometry>
        </mxCell>
        <mxCell id="HU9QyjZtkQBuaY1ddd4f-199" style="edgeStyle=orthogonalEdgeStyle;rounded=0;orthogonalLoop=1;jettySize=auto;html=1;entryX=0.5;entryY=1;entryDx=0;entryDy=0;endArrow=none;endFill=0;" edge="1" parent="1" source="HU9QyjZtkQBuaY1ddd4f-194" target="HU9QyjZtkQBuaY1ddd4f-196">
          <mxGeometry relative="1" as="geometry">
            <Array as="points">
              <mxPoint x="3190" y="-1050" />
              <mxPoint x="3580" y="-1050" />
            </Array>
          </mxGeometry>
        </mxCell>
        <mxCell id="HU9QyjZtkQBuaY1ddd4f-205" style="edgeStyle=orthogonalEdgeStyle;rounded=0;orthogonalLoop=1;jettySize=auto;html=1;entryX=0.5;entryY=1;entryDx=0;entryDy=0;endArrow=none;endFill=0;" edge="1" parent="1" source="HU9QyjZtkQBuaY1ddd4f-186" target="HU9QyjZtkQBuaY1ddd4f-202">
          <mxGeometry relative="1" as="geometry" />
        </mxCell>
        <mxCell id="HU9QyjZtkQBuaY1ddd4f-206" style="edgeStyle=orthogonalEdgeStyle;rounded=0;orthogonalLoop=1;jettySize=auto;html=1;entryX=0.5;entryY=1;entryDx=0;entryDy=0;endArrow=none;endFill=0;" edge="1" parent="1" source="HU9QyjZtkQBuaY1ddd4f-186" target="HU9QyjZtkQBuaY1ddd4f-203">
          <mxGeometry relative="1" as="geometry" />
        </mxCell>
        <mxCell id="HU9QyjZtkQBuaY1ddd4f-207" style="edgeStyle=orthogonalEdgeStyle;rounded=0;orthogonalLoop=1;jettySize=auto;html=1;entryX=0.5;entryY=1;entryDx=0;entryDy=0;endArrow=none;endFill=0;" edge="1" parent="1" source="HU9QyjZtkQBuaY1ddd4f-186" target="HU9QyjZtkQBuaY1ddd4f-204">
          <mxGeometry relative="1" as="geometry" />
        </mxCell>
        <mxCell id="HU9QyjZtkQBuaY1ddd4f-208" style="edgeStyle=orthogonalEdgeStyle;rounded=0;orthogonalLoop=1;jettySize=auto;html=1;entryX=0.5;entryY=1;entryDx=0;entryDy=0;endArrow=none;endFill=0;" edge="1" parent="1" source="HU9QyjZtkQBuaY1ddd4f-186" target="HU9QyjZtkQBuaY1ddd4f-194">
          <mxGeometry relative="1" as="geometry" />
        </mxCell>
        <mxCell id="HU9QyjZtkQBuaY1ddd4f-186" value="Método de pago" style="rounded=0;whiteSpace=wrap;html=1;fillColor=#b0e3e6;strokeColor=#0e8088;" vertex="1" parent="1">
          <mxGeometry x="3120" y="-1020" width="120" height="60" as="geometry" />
        </mxCell>
        <mxCell id="HU9QyjZtkQBuaY1ddd4f-191" style="edgeStyle=orthogonalEdgeStyle;rounded=0;orthogonalLoop=1;jettySize=auto;html=1;entryX=0.25;entryY=1;entryDx=0;entryDy=0;endArrow=ERoneToMany;endFill=0;" edge="1" parent="1" source="HU9QyjZtkQBuaY1ddd4f-187" target="HU9QyjZtkQBuaY1ddd4f-186">
          <mxGeometry relative="1" as="geometry">
            <mxPoint x="3060" y="-920" as="targetPoint" />
            <Array as="points">
              <mxPoint x="3150" y="-910" />
            </Array>
          </mxGeometry>
        </mxCell>
        <mxCell id="HU9QyjZtkQBuaY1ddd4f-192" style="edgeStyle=orthogonalEdgeStyle;rounded=0;orthogonalLoop=1;jettySize=auto;html=1;endArrow=ERoneToMany;endFill=0;" edge="1" parent="1" source="HU9QyjZtkQBuaY1ddd4f-187" target="HU9QyjZtkQBuaY1ddd4f-155">
          <mxGeometry relative="1" as="geometry" />
        </mxCell>
        <mxCell id="HU9QyjZtkQBuaY1ddd4f-187" value="Tiene" style="rhombus;whiteSpace=wrap;html=1;fillColor=#bac8d3;strokeColor=#23445d;" vertex="1" parent="1">
          <mxGeometry x="2840" y="-950" width="80" height="80" as="geometry" />
        </mxCell>
        <mxCell id="HU9QyjZtkQBuaY1ddd4f-189" style="edgeStyle=orthogonalEdgeStyle;rounded=0;orthogonalLoop=1;jettySize=auto;html=1;entryX=0.5;entryY=1;entryDx=0;entryDy=0;endArrow=ERoneToMany;endFill=0;" edge="1" parent="1" source="HU9QyjZtkQBuaY1ddd4f-188" target="HU9QyjZtkQBuaY1ddd4f-186">
          <mxGeometry relative="1" as="geometry" />
        </mxCell>
        <mxCell id="HU9QyjZtkQBuaY1ddd4f-190" style="edgeStyle=orthogonalEdgeStyle;rounded=0;orthogonalLoop=1;jettySize=auto;html=1;entryX=0.5;entryY=0;entryDx=0;entryDy=0;endArrow=ERmany;endFill=0;" edge="1" parent="1" source="HU9QyjZtkQBuaY1ddd4f-188" target="HU9QyjZtkQBuaY1ddd4f-149">
          <mxGeometry relative="1" as="geometry" />
        </mxCell>
        <mxCell id="HU9QyjZtkQBuaY1ddd4f-188" value="Tiene" style="rhombus;whiteSpace=wrap;html=1;fillColor=#bac8d3;strokeColor=#23445d;" vertex="1" parent="1">
          <mxGeometry x="3200" y="-730" width="80" height="80" as="geometry" />
        </mxCell>
        <mxCell id="HU9QyjZtkQBuaY1ddd4f-193" value="Total" style="ellipse;whiteSpace=wrap;html=1;fillColor=#b0e3e6;strokeColor=#0e8088;" vertex="1" parent="1">
          <mxGeometry x="3100" y="-1260" width="120" height="80" as="geometry" />
        </mxCell>
        <mxCell id="HU9QyjZtkQBuaY1ddd4f-195" value="Efectivo" style="ellipse;whiteSpace=wrap;html=1;fillColor=#b0e3e6;strokeColor=#0e8088;" vertex="1" parent="1">
          <mxGeometry x="3308" y="-1230" width="120" height="80" as="geometry" />
        </mxCell>
        <mxCell id="HU9QyjZtkQBuaY1ddd4f-196" value="Id Producto" style="ellipse;whiteSpace=wrap;html=1;fillColor=#b0e3e6;strokeColor=#0e8088;" vertex="1" parent="1">
          <mxGeometry x="3520" y="-1169" width="120" height="80" as="geometry" />
        </mxCell>
        <mxCell id="HU9QyjZtkQBuaY1ddd4f-202" value="Credito" style="ellipse;whiteSpace=wrap;html=1;fillColor=#b0e3e6;strokeColor=#0e8088;" vertex="1" parent="1">
          <mxGeometry x="2912" y="-1230" width="120" height="80" as="geometry" />
        </mxCell>
        <mxCell id="HU9QyjZtkQBuaY1ddd4f-203" value="Debito" style="ellipse;whiteSpace=wrap;html=1;fillColor=#b0e3e6;strokeColor=#0e8088;" vertex="1" parent="1">
          <mxGeometry x="2724" y="-1169" width="120" height="80" as="geometry" />
        </mxCell>
        <mxCell id="HU9QyjZtkQBuaY1ddd4f-204" value="Transferencia" style="ellipse;whiteSpace=wrap;html=1;fillColor=#b0e3e6;strokeColor=#0e8088;" vertex="1" parent="1">
          <mxGeometry x="2560" y="-1080" width="120" height="80" as="geometry" />
        </mxCell>
        <mxCell id="HU9QyjZtkQBuaY1ddd4f-209" value="" style="edgeStyle=orthogonalEdgeStyle;rounded=0;orthogonalLoop=1;jettySize=auto;html=1;entryX=0.5;entryY=1;entryDx=0;entryDy=0;endArrow=none;endFill=0;" edge="1" parent="1" source="HU9QyjZtkQBuaY1ddd4f-186" target="HU9QyjZtkQBuaY1ddd4f-194">
          <mxGeometry relative="1" as="geometry">
            <mxPoint x="3190" y="-1020" as="sourcePoint" />
            <mxPoint x="3580" y="-1089" as="targetPoint" />
            <Array as="points" />
          </mxGeometry>
        </mxCell>
        <mxCell id="HU9QyjZtkQBuaY1ddd4f-194" value="Id compra" style="ellipse;whiteSpace=wrap;html=1;fillColor=#b0e3e6;strokeColor=#0e8088;" vertex="1" parent="1">
          <mxGeometry x="3720" y="-1089" width="120" height="80" as="geometry" />
        </mxCell>
        <mxCell id="HU9QyjZtkQBuaY1ddd4f-210" value="Hospital" style="swimlane;fontStyle=0;childLayout=stackLayout;horizontal=1;startSize=30;horizontalStack=0;resizeParent=1;resizeParentMax=0;resizeLast=0;collapsible=1;marginBottom=0;whiteSpace=wrap;html=1;" vertex="1" parent="1">
          <mxGeometry x="2773" y="-2500" width="147" height="120" as="geometry" />
        </mxCell>
        <mxCell id="HU9QyjZtkQBuaY1ddd4f-211" value="Id Hospital" style="text;strokeColor=none;fillColor=none;align=left;verticalAlign=middle;spacingLeft=4;spacingRight=4;overflow=hidden;points=[[0,0.5],[1,0.5]];portConstraint=eastwest;rotatable=0;whiteSpace=wrap;html=1;" vertex="1" parent="HU9QyjZtkQBuaY1ddd4f-210">
          <mxGeometry y="30" width="147" height="30" as="geometry" />
        </mxCell>
        <mxCell id="HU9QyjZtkQBuaY1ddd4f-212" value="Id Medico" style="text;strokeColor=none;fillColor=none;align=left;verticalAlign=middle;spacingLeft=4;spacingRight=4;overflow=hidden;points=[[0,0.5],[1,0.5]];portConstraint=eastwest;rotatable=0;whiteSpace=wrap;html=1;" vertex="1" parent="HU9QyjZtkQBuaY1ddd4f-210">
          <mxGeometry y="60" width="147" height="30" as="geometry" />
        </mxCell>
        <mxCell id="HU9QyjZtkQBuaY1ddd4f-213" value="Id Paciente&lt;div&gt;Dirección&lt;/div&gt;" style="text;strokeColor=none;fillColor=none;align=left;verticalAlign=middle;spacingLeft=4;spacingRight=4;overflow=hidden;points=[[0,0.5],[1,0.5]];portConstraint=eastwest;rotatable=0;whiteSpace=wrap;html=1;" vertex="1" parent="HU9QyjZtkQBuaY1ddd4f-210">
          <mxGeometry y="90" width="147" height="30" as="geometry" />
        </mxCell>
        <mxCell id="HU9QyjZtkQBuaY1ddd4f-214" value="Paciente" style="swimlane;fontStyle=0;childLayout=stackLayout;horizontal=1;startSize=30;horizontalStack=0;resizeParent=1;resizeParentMax=0;resizeLast=0;collapsible=1;marginBottom=0;whiteSpace=wrap;html=1;" vertex="1" parent="1">
          <mxGeometry x="2856" y="-2200" width="140" height="120" as="geometry">
            <mxRectangle x="2760" y="-2130" width="80" height="30" as="alternateBounds" />
          </mxGeometry>
        </mxCell>
        <mxCell id="HU9QyjZtkQBuaY1ddd4f-215" value="Id Paciente&lt;div&gt;Nombre&lt;/div&gt;" style="text;strokeColor=none;fillColor=none;align=left;verticalAlign=middle;spacingLeft=4;spacingRight=4;overflow=hidden;points=[[0,0.5],[1,0.5]];portConstraint=eastwest;rotatable=0;whiteSpace=wrap;html=1;" vertex="1" parent="HU9QyjZtkQBuaY1ddd4f-214">
          <mxGeometry y="30" width="140" height="30" as="geometry" />
        </mxCell>
        <mxCell id="HU9QyjZtkQBuaY1ddd4f-216" value="Genero&lt;div&gt;FechNac&lt;/div&gt;" style="text;strokeColor=none;fillColor=none;align=left;verticalAlign=middle;spacingLeft=4;spacingRight=4;overflow=hidden;points=[[0,0.5],[1,0.5]];portConstraint=eastwest;rotatable=0;whiteSpace=wrap;html=1;" vertex="1" parent="HU9QyjZtkQBuaY1ddd4f-214">
          <mxGeometry y="60" width="140" height="30" as="geometry" />
        </mxCell>
        <mxCell id="HU9QyjZtkQBuaY1ddd4f-217" value="N° Telefónico&lt;div&gt;Dirección&amp;nbsp;&lt;/div&gt;" style="text;strokeColor=none;fillColor=none;align=left;verticalAlign=middle;spacingLeft=4;spacingRight=4;overflow=hidden;points=[[0,0.5],[1,0.5]];portConstraint=eastwest;rotatable=0;whiteSpace=wrap;html=1;" vertex="1" parent="HU9QyjZtkQBuaY1ddd4f-214">
          <mxGeometry y="90" width="140" height="30" as="geometry" />
        </mxCell>
        <mxCell id="HU9QyjZtkQBuaY1ddd4f-218" value="Medico" style="swimlane;fontStyle=0;childLayout=stackLayout;horizontal=1;startSize=20;horizontalStack=0;resizeParent=1;resizeParentMax=0;resizeLast=0;collapsible=1;marginBottom=0;whiteSpace=wrap;html=1;" vertex="1" parent="1">
          <mxGeometry x="2610" y="-2300" width="140" height="110" as="geometry" />
        </mxCell>
        <mxCell id="HU9QyjZtkQBuaY1ddd4f-219" value="Id Medico&lt;div&gt;Nombre&lt;/div&gt;" style="text;strokeColor=none;fillColor=none;align=left;verticalAlign=middle;spacingLeft=4;spacingRight=4;overflow=hidden;points=[[0,0.5],[1,0.5]];portConstraint=eastwest;rotatable=0;whiteSpace=wrap;html=1;" vertex="1" parent="HU9QyjZtkQBuaY1ddd4f-218">
          <mxGeometry y="20" width="140" height="30" as="geometry" />
        </mxCell>
        <mxCell id="HU9QyjZtkQBuaY1ddd4f-220" value="Edad&lt;div&gt;FechNac&lt;/div&gt;" style="text;strokeColor=none;fillColor=none;align=left;verticalAlign=middle;spacingLeft=4;spacingRight=4;overflow=hidden;points=[[0,0.5],[1,0.5]];portConstraint=eastwest;rotatable=0;whiteSpace=wrap;html=1;" vertex="1" parent="HU9QyjZtkQBuaY1ddd4f-218">
          <mxGeometry y="50" width="140" height="30" as="geometry" />
        </mxCell>
        <mxCell id="HU9QyjZtkQBuaY1ddd4f-221" value="Horario" style="text;strokeColor=none;fillColor=none;align=left;verticalAlign=middle;spacingLeft=4;spacingRight=4;overflow=hidden;points=[[0,0.5],[1,0.5]];portConstraint=eastwest;rotatable=0;whiteSpace=wrap;html=1;" vertex="1" parent="HU9QyjZtkQBuaY1ddd4f-218">
          <mxGeometry y="80" width="140" height="30" as="geometry" />
        </mxCell>
        <mxCell id="HU9QyjZtkQBuaY1ddd4f-226" value="Mascota" style="swimlane;fontStyle=0;childLayout=stackLayout;horizontal=1;startSize=30;horizontalStack=0;resizeParent=1;resizeParentMax=0;resizeLast=0;collapsible=1;marginBottom=0;whiteSpace=wrap;html=1;" vertex="1" parent="1">
          <mxGeometry x="3474" y="355" width="140" height="140" as="geometry" />
        </mxCell>
        <mxCell id="HU9QyjZtkQBuaY1ddd4f-227" value="Id mascota&lt;div&gt;Id Tienda de mascotas&lt;br&gt;&lt;div&gt;Especie&lt;/div&gt;&lt;/div&gt;" style="text;strokeColor=none;fillColor=none;align=left;verticalAlign=middle;spacingLeft=4;spacingRight=4;overflow=hidden;points=[[0,0.5],[1,0.5]];portConstraint=eastwest;rotatable=0;whiteSpace=wrap;html=1;" vertex="1" parent="HU9QyjZtkQBuaY1ddd4f-226">
          <mxGeometry y="30" width="140" height="50" as="geometry" />
        </mxCell>
        <mxCell id="HU9QyjZtkQBuaY1ddd4f-229" value="Nombre" style="text;strokeColor=none;fillColor=none;align=left;verticalAlign=middle;spacingLeft=4;spacingRight=4;overflow=hidden;points=[[0,0.5],[1,0.5]];portConstraint=eastwest;rotatable=0;whiteSpace=wrap;html=1;" vertex="1" parent="HU9QyjZtkQBuaY1ddd4f-226">
          <mxGeometry y="80" width="140" height="30" as="geometry" />
        </mxCell>
        <mxCell id="HU9QyjZtkQBuaY1ddd4f-228" value="Edad&lt;div&gt;Genero&lt;/div&gt;" style="text;strokeColor=none;fillColor=none;align=left;verticalAlign=middle;spacingLeft=4;spacingRight=4;overflow=hidden;points=[[0,0.5],[1,0.5]];portConstraint=eastwest;rotatable=0;whiteSpace=wrap;html=1;" vertex="1" parent="HU9QyjZtkQBuaY1ddd4f-226">
          <mxGeometry y="110" width="140" height="30" as="geometry" />
        </mxCell>
        <mxCell id="HU9QyjZtkQBuaY1ddd4f-230" value="Cliente" style="swimlane;fontStyle=0;childLayout=stackLayout;horizontal=1;startSize=30;horizontalStack=0;resizeParent=1;resizeParentMax=0;resizeLast=0;collapsible=1;marginBottom=0;whiteSpace=wrap;html=1;" vertex="1" parent="1">
          <mxGeometry x="3260" y="545" width="140" height="120" as="geometry" />
        </mxCell>
        <mxCell id="HU9QyjZtkQBuaY1ddd4f-231" value="Id Cliente&lt;div&gt;Id Mascota&lt;/div&gt;" style="text;strokeColor=none;fillColor=none;align=left;verticalAlign=middle;spacingLeft=4;spacingRight=4;overflow=hidden;points=[[0,0.5],[1,0.5]];portConstraint=eastwest;rotatable=0;whiteSpace=wrap;html=1;" vertex="1" parent="HU9QyjZtkQBuaY1ddd4f-230">
          <mxGeometry y="30" width="140" height="30" as="geometry" />
        </mxCell>
        <mxCell id="HU9QyjZtkQBuaY1ddd4f-232" value="Nombre&lt;div&gt;N° telefónico&lt;/div&gt;" style="text;strokeColor=none;fillColor=none;align=left;verticalAlign=middle;spacingLeft=4;spacingRight=4;overflow=hidden;points=[[0,0.5],[1,0.5]];portConstraint=eastwest;rotatable=0;whiteSpace=wrap;html=1;" vertex="1" parent="HU9QyjZtkQBuaY1ddd4f-230">
          <mxGeometry y="60" width="140" height="30" as="geometry" />
        </mxCell>
        <mxCell id="HU9QyjZtkQBuaY1ddd4f-233" value="Apellido P&lt;div&gt;Apellido M&lt;/div&gt;" style="text;strokeColor=none;fillColor=none;align=left;verticalAlign=middle;spacingLeft=4;spacingRight=4;overflow=hidden;points=[[0,0.5],[1,0.5]];portConstraint=eastwest;rotatable=0;whiteSpace=wrap;html=1;" vertex="1" parent="HU9QyjZtkQBuaY1ddd4f-230">
          <mxGeometry y="90" width="140" height="30" as="geometry" />
        </mxCell>
        <mxCell id="HU9QyjZtkQBuaY1ddd4f-234" value="Tienda de Mascotas" style="swimlane;fontStyle=0;childLayout=stackLayout;horizontal=1;startSize=30;horizontalStack=0;resizeParent=1;resizeParentMax=0;resizeLast=0;collapsible=1;marginBottom=0;whiteSpace=wrap;html=1;" vertex="1" parent="1">
          <mxGeometry x="3230" y="275" width="140" height="60" as="geometry" />
        </mxCell>
        <mxCell id="HU9QyjZtkQBuaY1ddd4f-235" value="Id tienda de mascotas" style="text;strokeColor=none;fillColor=none;align=left;verticalAlign=middle;spacingLeft=4;spacingRight=4;overflow=hidden;points=[[0,0.5],[1,0.5]];portConstraint=eastwest;rotatable=0;whiteSpace=wrap;html=1;" vertex="1" parent="HU9QyjZtkQBuaY1ddd4f-234">
          <mxGeometry y="30" width="140" height="30" as="geometry" />
        </mxCell>
        <mxCell id="HU9QyjZtkQBuaY1ddd4f-238" value="Escuela" style="swimlane;fontStyle=0;childLayout=stackLayout;horizontal=1;startSize=30;horizontalStack=0;resizeParent=1;resizeParentMax=0;resizeLast=0;collapsible=1;marginBottom=0;whiteSpace=wrap;html=1;" vertex="1" parent="1">
          <mxGeometry x="30" y="340" width="140" height="140" as="geometry" />
        </mxCell>
        <mxCell id="HU9QyjZtkQBuaY1ddd4f-239" value="Id Escuela&lt;div&gt;Director&lt;/div&gt;&lt;div&gt;Administración&lt;/div&gt;" style="text;strokeColor=none;fillColor=none;align=left;verticalAlign=middle;spacingLeft=4;spacingRight=4;overflow=hidden;points=[[0,0.5],[1,0.5]];portConstraint=eastwest;rotatable=0;whiteSpace=wrap;html=1;" vertex="1" parent="HU9QyjZtkQBuaY1ddd4f-238">
          <mxGeometry y="30" width="140" height="50" as="geometry" />
        </mxCell>
        <mxCell id="HU9QyjZtkQBuaY1ddd4f-240" value="Sistema" style="text;strokeColor=none;fillColor=none;align=left;verticalAlign=middle;spacingLeft=4;spacingRight=4;overflow=hidden;points=[[0,0.5],[1,0.5]];portConstraint=eastwest;rotatable=0;whiteSpace=wrap;html=1;" vertex="1" parent="HU9QyjZtkQBuaY1ddd4f-238">
          <mxGeometry y="80" width="140" height="30" as="geometry" />
        </mxCell>
        <mxCell id="HU9QyjZtkQBuaY1ddd4f-241" value="Recursos" style="text;strokeColor=none;fillColor=none;align=left;verticalAlign=middle;spacingLeft=4;spacingRight=4;overflow=hidden;points=[[0,0.5],[1,0.5]];portConstraint=eastwest;rotatable=0;whiteSpace=wrap;html=1;" vertex="1" parent="HU9QyjZtkQBuaY1ddd4f-238">
          <mxGeometry y="110" width="140" height="30" as="geometry" />
        </mxCell>
        <mxCell id="HU9QyjZtkQBuaY1ddd4f-242" value="Método de pago&amp;nbsp;" style="swimlane;fontStyle=0;childLayout=stackLayout;horizontal=1;startSize=30;horizontalStack=0;resizeParent=1;resizeParentMax=0;resizeLast=0;collapsible=1;marginBottom=0;whiteSpace=wrap;html=1;" vertex="1" parent="1">
          <mxGeometry x="2835" y="510" width="210" height="190" as="geometry" />
        </mxCell>
        <mxCell id="HU9QyjZtkQBuaY1ddd4f-243" value="Id Método de pago&lt;div&gt;Id compra&lt;/div&gt;&lt;div&gt;Id Producto&lt;/div&gt;&lt;div&gt;Credito&lt;/div&gt;&lt;div&gt;Debito&lt;/div&gt;&lt;div&gt;Tranferencia&lt;/div&gt;" style="text;strokeColor=none;fillColor=none;align=left;verticalAlign=middle;spacingLeft=4;spacingRight=4;overflow=hidden;points=[[0,0.5],[1,0.5]];portConstraint=eastwest;rotatable=0;whiteSpace=wrap;html=1;" vertex="1" parent="HU9QyjZtkQBuaY1ddd4f-242">
          <mxGeometry y="30" width="210" height="100" as="geometry" />
        </mxCell>
        <mxCell id="HU9QyjZtkQBuaY1ddd4f-244" value="Efectivo" style="text;strokeColor=none;fillColor=none;align=left;verticalAlign=middle;spacingLeft=4;spacingRight=4;overflow=hidden;points=[[0,0.5],[1,0.5]];portConstraint=eastwest;rotatable=0;whiteSpace=wrap;html=1;" vertex="1" parent="HU9QyjZtkQBuaY1ddd4f-242">
          <mxGeometry y="130" width="210" height="60" as="geometry" />
        </mxCell>
        <mxCell id="HU9QyjZtkQBuaY1ddd4f-306" style="edgeStyle=orthogonalEdgeStyle;rounded=0;orthogonalLoop=1;jettySize=auto;html=1;" edge="1" parent="1" source="HU9QyjZtkQBuaY1ddd4f-246" target="HU9QyjZtkQBuaY1ddd4f-235">
          <mxGeometry relative="1" as="geometry">
            <Array as="points">
              <mxPoint x="3010" y="400" />
              <mxPoint x="3010" y="320" />
            </Array>
          </mxGeometry>
        </mxCell>
        <mxCell id="HU9QyjZtkQBuaY1ddd4f-246" value="Producto" style="swimlane;fontStyle=0;childLayout=stackLayout;horizontal=1;startSize=30;horizontalStack=0;resizeParent=1;resizeParentMax=0;resizeLast=0;collapsible=1;marginBottom=0;whiteSpace=wrap;html=1;" vertex="1" parent="1">
          <mxGeometry x="3050" y="355" width="140" height="90" as="geometry" />
        </mxCell>
        <mxCell id="HU9QyjZtkQBuaY1ddd4f-247" value="Id producto" style="text;strokeColor=none;fillColor=none;align=left;verticalAlign=middle;spacingLeft=4;spacingRight=4;overflow=hidden;points=[[0,0.5],[1,0.5]];portConstraint=eastwest;rotatable=0;whiteSpace=wrap;html=1;" vertex="1" parent="HU9QyjZtkQBuaY1ddd4f-246">
          <mxGeometry y="30" width="140" height="30" as="geometry" />
        </mxCell>
        <mxCell id="HU9QyjZtkQBuaY1ddd4f-248" value="Precio" style="text;strokeColor=none;fillColor=none;align=left;verticalAlign=middle;spacingLeft=4;spacingRight=4;overflow=hidden;points=[[0,0.5],[1,0.5]];portConstraint=eastwest;rotatable=0;whiteSpace=wrap;html=1;" vertex="1" parent="HU9QyjZtkQBuaY1ddd4f-246">
          <mxGeometry y="60" width="140" height="30" as="geometry" />
        </mxCell>
        <mxCell id="HU9QyjZtkQBuaY1ddd4f-251" value="Cliente" style="swimlane;fontStyle=0;childLayout=stackLayout;horizontal=1;startSize=30;horizontalStack=0;resizeParent=1;resizeParentMax=0;resizeLast=0;collapsible=1;marginBottom=0;whiteSpace=wrap;html=1;" vertex="1" parent="1">
          <mxGeometry x="-520" y="-476" width="140" height="120" as="geometry" />
        </mxCell>
        <mxCell id="HU9QyjZtkQBuaY1ddd4f-252" value="Producto" style="text;strokeColor=none;fillColor=none;align=left;verticalAlign=middle;spacingLeft=4;spacingRight=4;overflow=hidden;points=[[0,0.5],[1,0.5]];portConstraint=eastwest;rotatable=0;whiteSpace=wrap;html=1;" vertex="1" parent="HU9QyjZtkQBuaY1ddd4f-251">
          <mxGeometry y="30" width="140" height="30" as="geometry" />
        </mxCell>
        <mxCell id="HU9QyjZtkQBuaY1ddd4f-253" value="Método de pago" style="text;strokeColor=none;fillColor=none;align=left;verticalAlign=middle;spacingLeft=4;spacingRight=4;overflow=hidden;points=[[0,0.5],[1,0.5]];portConstraint=eastwest;rotatable=0;whiteSpace=wrap;html=1;" vertex="1" parent="HU9QyjZtkQBuaY1ddd4f-251">
          <mxGeometry y="60" width="140" height="30" as="geometry" />
        </mxCell>
        <mxCell id="HU9QyjZtkQBuaY1ddd4f-254" value="Compra&lt;div&gt;Producto&lt;/div&gt;" style="text;strokeColor=none;fillColor=none;align=left;verticalAlign=middle;spacingLeft=4;spacingRight=4;overflow=hidden;points=[[0,0.5],[1,0.5]];portConstraint=eastwest;rotatable=0;whiteSpace=wrap;html=1;" vertex="1" parent="HU9QyjZtkQBuaY1ddd4f-251">
          <mxGeometry y="90" width="140" height="30" as="geometry" />
        </mxCell>
        <mxCell id="HU9QyjZtkQBuaY1ddd4f-255" value="Docente" style="swimlane;fontStyle=0;childLayout=stackLayout;horizontal=1;startSize=30;horizontalStack=0;resizeParent=1;resizeParentMax=0;resizeLast=0;collapsible=1;marginBottom=0;whiteSpace=wrap;html=1;" vertex="1" parent="1">
          <mxGeometry x="220" y="480" width="140" height="110" as="geometry" />
        </mxCell>
        <mxCell id="HU9QyjZtkQBuaY1ddd4f-256" value="Id Docente&lt;div&gt;Nombre&lt;/div&gt;&lt;div&gt;FechNac&lt;/div&gt;&lt;div&gt;Experiencia&lt;/div&gt;" style="text;strokeColor=none;fillColor=none;align=left;verticalAlign=middle;spacingLeft=4;spacingRight=4;overflow=hidden;points=[[0,0.5],[1,0.5]];portConstraint=eastwest;rotatable=0;whiteSpace=wrap;html=1;" vertex="1" parent="HU9QyjZtkQBuaY1ddd4f-255">
          <mxGeometry y="30" width="140" height="50" as="geometry" />
        </mxCell>
        <mxCell id="HU9QyjZtkQBuaY1ddd4f-258" value="Ética" style="text;strokeColor=none;fillColor=none;align=left;verticalAlign=middle;spacingLeft=4;spacingRight=4;overflow=hidden;points=[[0,0.5],[1,0.5]];portConstraint=eastwest;rotatable=0;whiteSpace=wrap;html=1;" vertex="1" parent="HU9QyjZtkQBuaY1ddd4f-255">
          <mxGeometry y="80" width="140" height="30" as="geometry" />
        </mxCell>
        <mxCell id="HU9QyjZtkQBuaY1ddd4f-259" value="Alumno" style="swimlane;fontStyle=0;childLayout=stackLayout;horizontal=1;startSize=30;horizontalStack=0;resizeParent=1;resizeParentMax=0;resizeLast=0;collapsible=1;marginBottom=0;whiteSpace=wrap;html=1;" vertex="1" parent="1">
          <mxGeometry x="-40" y="585" width="140" height="140" as="geometry" />
        </mxCell>
        <mxCell id="HU9QyjZtkQBuaY1ddd4f-260" value="Id Alumno&lt;div&gt;Nombre&lt;/div&gt;&lt;div&gt;Aportación voluntaria&lt;/div&gt;" style="text;strokeColor=none;fillColor=none;align=left;verticalAlign=middle;spacingLeft=4;spacingRight=4;overflow=hidden;points=[[0,0.5],[1,0.5]];portConstraint=eastwest;rotatable=0;whiteSpace=wrap;html=1;" vertex="1" parent="HU9QyjZtkQBuaY1ddd4f-259">
          <mxGeometry y="30" width="140" height="50" as="geometry" />
        </mxCell>
        <mxCell id="HU9QyjZtkQBuaY1ddd4f-261" value="Matricula" style="text;strokeColor=none;fillColor=none;align=left;verticalAlign=middle;spacingLeft=4;spacingRight=4;overflow=hidden;points=[[0,0.5],[1,0.5]];portConstraint=eastwest;rotatable=0;whiteSpace=wrap;html=1;" vertex="1" parent="HU9QyjZtkQBuaY1ddd4f-259">
          <mxGeometry y="80" width="140" height="30" as="geometry" />
        </mxCell>
        <mxCell id="HU9QyjZtkQBuaY1ddd4f-262" value="Material de practica" style="text;strokeColor=none;fillColor=none;align=left;verticalAlign=middle;spacingLeft=4;spacingRight=4;overflow=hidden;points=[[0,0.5],[1,0.5]];portConstraint=eastwest;rotatable=0;whiteSpace=wrap;html=1;" vertex="1" parent="HU9QyjZtkQBuaY1ddd4f-259">
          <mxGeometry y="110" width="140" height="30" as="geometry" />
        </mxCell>
        <mxCell id="HU9QyjZtkQBuaY1ddd4f-263" value="Centro comercial" style="swimlane;fontStyle=0;childLayout=stackLayout;horizontal=1;startSize=30;horizontalStack=0;resizeParent=1;resizeParentMax=0;resizeLast=0;collapsible=1;marginBottom=0;whiteSpace=wrap;html=1;" vertex="1" parent="1">
          <mxGeometry x="-520" y="-690" width="140" height="120" as="geometry" />
        </mxCell>
        <mxCell id="HU9QyjZtkQBuaY1ddd4f-264" value="Id centro comercial&lt;div&gt;Términos y condiciones&lt;/div&gt;" style="text;strokeColor=none;fillColor=none;align=left;verticalAlign=middle;spacingLeft=4;spacingRight=4;overflow=hidden;points=[[0,0.5],[1,0.5]];portConstraint=eastwest;rotatable=0;whiteSpace=wrap;html=1;" vertex="1" parent="HU9QyjZtkQBuaY1ddd4f-263">
          <mxGeometry y="30" width="140" height="30" as="geometry" />
        </mxCell>
        <mxCell id="HU9QyjZtkQBuaY1ddd4f-265" value="Gestión de producto&lt;div&gt;Financiamiento&lt;/div&gt;" style="text;strokeColor=none;fillColor=none;align=left;verticalAlign=middle;spacingLeft=4;spacingRight=4;overflow=hidden;points=[[0,0.5],[1,0.5]];portConstraint=eastwest;rotatable=0;whiteSpace=wrap;html=1;" vertex="1" parent="HU9QyjZtkQBuaY1ddd4f-263">
          <mxGeometry y="60" width="140" height="30" as="geometry" />
        </mxCell>
        <mxCell id="HU9QyjZtkQBuaY1ddd4f-266" value="Mantenimiento" style="text;strokeColor=none;fillColor=none;align=left;verticalAlign=middle;spacingLeft=4;spacingRight=4;overflow=hidden;points=[[0,0.5],[1,0.5]];portConstraint=eastwest;rotatable=0;whiteSpace=wrap;html=1;" vertex="1" parent="HU9QyjZtkQBuaY1ddd4f-263">
          <mxGeometry y="90" width="140" height="30" as="geometry" />
        </mxCell>
        <mxCell id="HU9QyjZtkQBuaY1ddd4f-267" value="Biblioteca" style="swimlane;fontStyle=0;childLayout=stackLayout;horizontal=1;startSize=30;horizontalStack=0;resizeParent=1;resizeParentMax=0;resizeLast=0;collapsible=1;marginBottom=0;whiteSpace=wrap;html=1;" vertex="1" parent="1">
          <mxGeometry x="-270" y="-1530" width="140" height="120" as="geometry" />
        </mxCell>
        <mxCell id="HU9QyjZtkQBuaY1ddd4f-268" value="Id biblioteca&lt;div&gt;Instalación&lt;/div&gt;" style="text;strokeColor=none;fillColor=none;align=left;verticalAlign=middle;spacingLeft=4;spacingRight=4;overflow=hidden;points=[[0,0.5],[1,0.5]];portConstraint=eastwest;rotatable=0;whiteSpace=wrap;html=1;" vertex="1" parent="HU9QyjZtkQBuaY1ddd4f-267">
          <mxGeometry y="30" width="140" height="30" as="geometry" />
        </mxCell>
        <mxCell id="HU9QyjZtkQBuaY1ddd4f-269" value="Sistema" style="text;strokeColor=none;fillColor=none;align=left;verticalAlign=middle;spacingLeft=4;spacingRight=4;overflow=hidden;points=[[0,0.5],[1,0.5]];portConstraint=eastwest;rotatable=0;whiteSpace=wrap;html=1;" vertex="1" parent="HU9QyjZtkQBuaY1ddd4f-267">
          <mxGeometry y="60" width="140" height="30" as="geometry" />
        </mxCell>
        <mxCell id="HU9QyjZtkQBuaY1ddd4f-270" value="Editorial" style="text;strokeColor=none;fillColor=none;align=left;verticalAlign=middle;spacingLeft=4;spacingRight=4;overflow=hidden;points=[[0,0.5],[1,0.5]];portConstraint=eastwest;rotatable=0;whiteSpace=wrap;html=1;" vertex="1" parent="HU9QyjZtkQBuaY1ddd4f-267">
          <mxGeometry y="90" width="140" height="30" as="geometry" />
        </mxCell>
        <mxCell id="HU9QyjZtkQBuaY1ddd4f-271" value="Libros" style="swimlane;fontStyle=0;childLayout=stackLayout;horizontal=1;startSize=30;horizontalStack=0;resizeParent=1;resizeParentMax=0;resizeLast=0;collapsible=1;marginBottom=0;whiteSpace=wrap;html=1;" vertex="1" parent="1">
          <mxGeometry x="-500" y="-1480" width="140" height="110" as="geometry" />
        </mxCell>
        <mxCell id="HU9QyjZtkQBuaY1ddd4f-272" value="Id libros&lt;div&gt;Clasificación&lt;/div&gt;" style="text;strokeColor=none;fillColor=none;align=left;verticalAlign=middle;spacingLeft=4;spacingRight=4;overflow=hidden;points=[[0,0.5],[1,0.5]];portConstraint=eastwest;rotatable=0;whiteSpace=wrap;html=1;" vertex="1" parent="HU9QyjZtkQBuaY1ddd4f-271">
          <mxGeometry y="30" width="140" height="30" as="geometry" />
        </mxCell>
        <mxCell id="HU9QyjZtkQBuaY1ddd4f-273" value="Contenido&lt;div&gt;Diseño&lt;/div&gt;&lt;div&gt;Índice&lt;/div&gt;" style="text;strokeColor=none;fillColor=none;align=left;verticalAlign=middle;spacingLeft=4;spacingRight=4;overflow=hidden;points=[[0,0.5],[1,0.5]];portConstraint=eastwest;rotatable=0;whiteSpace=wrap;html=1;" vertex="1" parent="HU9QyjZtkQBuaY1ddd4f-271">
          <mxGeometry y="60" width="140" height="50" as="geometry" />
        </mxCell>
        <mxCell id="HU9QyjZtkQBuaY1ddd4f-281" value="PK" style="text;html=1;align=center;verticalAlign=middle;resizable=0;points=[];autosize=1;strokeColor=none;fillColor=none;" vertex="1" parent="1">
          <mxGeometry x="2710" y="-2470" width="40" height="30" as="geometry" />
        </mxCell>
        <mxCell id="HU9QyjZtkQBuaY1ddd4f-282" value="FK" style="text;html=1;align=center;verticalAlign=middle;resizable=0;points=[];autosize=1;strokeColor=none;fillColor=none;" vertex="1" parent="1">
          <mxGeometry x="2800" y="-2170" width="40" height="30" as="geometry" />
        </mxCell>
        <mxCell id="HU9QyjZtkQBuaY1ddd4f-283" value="FK" style="text;html=1;align=center;verticalAlign=middle;resizable=0;points=[];autosize=1;strokeColor=none;fillColor=none;" vertex="1" parent="1">
          <mxGeometry x="2560" y="-2240" width="40" height="30" as="geometry" />
        </mxCell>
        <mxCell id="HU9QyjZtkQBuaY1ddd4f-286" value="PK" style="text;html=1;align=center;verticalAlign=middle;resizable=0;points=[];autosize=1;strokeColor=none;fillColor=none;" vertex="1" parent="1">
          <mxGeometry x="2560" y="-2272" width="40" height="30" as="geometry" />
        </mxCell>
        <mxCell id="HU9QyjZtkQBuaY1ddd4f-288" style="edgeStyle=orthogonalEdgeStyle;rounded=0;orthogonalLoop=1;jettySize=auto;html=1;entryX=0;entryY=0.5;entryDx=0;entryDy=0;endArrow=none;endFill=0;startArrow=block;startFill=1;" edge="1" parent="1" source="HU9QyjZtkQBuaY1ddd4f-213" target="HU9QyjZtkQBuaY1ddd4f-219">
          <mxGeometry relative="1" as="geometry" />
        </mxCell>
        <mxCell id="HU9QyjZtkQBuaY1ddd4f-289" style="edgeStyle=orthogonalEdgeStyle;rounded=0;orthogonalLoop=1;jettySize=auto;html=1;entryX=0;entryY=0.25;entryDx=0;entryDy=0;endArrow=none;endFill=0;startArrow=block;startFill=1;" edge="1" parent="1" source="HU9QyjZtkQBuaY1ddd4f-221" target="HU9QyjZtkQBuaY1ddd4f-214">
          <mxGeometry relative="1" as="geometry" />
        </mxCell>
        <mxCell id="HU9QyjZtkQBuaY1ddd4f-290" value="Pk" style="text;html=1;align=center;verticalAlign=middle;resizable=0;points=[];autosize=1;strokeColor=none;fillColor=none;" vertex="1" parent="1">
          <mxGeometry x="3180" y="280" width="40" height="30" as="geometry" />
        </mxCell>
        <mxCell id="HU9QyjZtkQBuaY1ddd4f-291" value="PK" style="text;html=1;align=center;verticalAlign=middle;resizable=0;points=[];autosize=1;strokeColor=none;fillColor=none;" vertex="1" parent="1">
          <mxGeometry x="3000" y="380" width="40" height="30" as="geometry" />
        </mxCell>
        <mxCell id="HU9QyjZtkQBuaY1ddd4f-292" value="FK" style="text;html=1;align=center;verticalAlign=middle;resizable=0;points=[];autosize=1;strokeColor=none;fillColor=none;" vertex="1" parent="1">
          <mxGeometry x="3000" y="400" width="40" height="30" as="geometry" />
        </mxCell>
        <mxCell id="HU9QyjZtkQBuaY1ddd4f-293" value="PK" style="text;html=1;align=center;verticalAlign=middle;resizable=0;points=[];autosize=1;strokeColor=none;fillColor=none;" vertex="1" parent="1">
          <mxGeometry x="2770" y="528" width="40" height="30" as="geometry" />
        </mxCell>
        <mxCell id="HU9QyjZtkQBuaY1ddd4f-294" value="FK" style="text;html=1;align=center;verticalAlign=middle;resizable=0;points=[];autosize=1;strokeColor=none;fillColor=none;" vertex="1" parent="1">
          <mxGeometry x="2770" y="645" width="40" height="30" as="geometry" />
        </mxCell>
        <mxCell id="HU9QyjZtkQBuaY1ddd4f-295" value="PK" style="text;html=1;align=center;verticalAlign=middle;resizable=0;points=[];autosize=1;strokeColor=none;fillColor=none;" vertex="1" parent="1">
          <mxGeometry x="3200" y="555" width="40" height="30" as="geometry" />
        </mxCell>
        <mxCell id="HU9QyjZtkQBuaY1ddd4f-296" value="FK" style="text;html=1;align=center;verticalAlign=middle;resizable=0;points=[];autosize=1;strokeColor=none;fillColor=none;" vertex="1" parent="1">
          <mxGeometry x="3200" y="615" width="40" height="30" as="geometry" />
        </mxCell>
        <mxCell id="HU9QyjZtkQBuaY1ddd4f-298" value="FK" style="text;html=1;align=center;verticalAlign=middle;resizable=0;points=[];autosize=1;strokeColor=none;fillColor=none;" vertex="1" parent="1">
          <mxGeometry x="3428" y="445" width="40" height="30" as="geometry" />
        </mxCell>
        <mxCell id="HU9QyjZtkQBuaY1ddd4f-299" value="PK" style="text;html=1;align=center;verticalAlign=middle;resizable=0;points=[];autosize=1;strokeColor=none;fillColor=none;" vertex="1" parent="1">
          <mxGeometry x="3428" y="385" width="40" height="30" as="geometry" />
        </mxCell>
        <mxCell id="HU9QyjZtkQBuaY1ddd4f-300" style="edgeStyle=orthogonalEdgeStyle;rounded=0;orthogonalLoop=1;jettySize=auto;html=1;entryX=0.007;entryY=0.115;entryDx=0;entryDy=0;entryPerimeter=0;endArrow=none;endFill=0;startArrow=block;startFill=1;" edge="1" parent="1" source="HU9QyjZtkQBuaY1ddd4f-235" target="HU9QyjZtkQBuaY1ddd4f-227">
          <mxGeometry relative="1" as="geometry" />
        </mxCell>
        <mxCell id="HU9QyjZtkQBuaY1ddd4f-301" style="edgeStyle=orthogonalEdgeStyle;rounded=0;orthogonalLoop=1;jettySize=auto;html=1;entryX=0;entryY=0.5;entryDx=0;entryDy=0;" edge="1" parent="1" source="HU9QyjZtkQBuaY1ddd4f-231" target="HU9QyjZtkQBuaY1ddd4f-228">
          <mxGeometry relative="1" as="geometry" />
        </mxCell>
        <mxCell id="HU9QyjZtkQBuaY1ddd4f-303" style="edgeStyle=orthogonalEdgeStyle;rounded=0;orthogonalLoop=1;jettySize=auto;html=1;entryX=0;entryY=0.5;entryDx=0;entryDy=0;" edge="1" parent="1" source="HU9QyjZtkQBuaY1ddd4f-248" target="HU9QyjZtkQBuaY1ddd4f-244">
          <mxGeometry relative="1" as="geometry">
            <Array as="points">
              <mxPoint x="2730" y="430" />
              <mxPoint x="2730" y="670" />
            </Array>
          </mxGeometry>
        </mxCell>
        <mxCell id="HU9QyjZtkQBuaY1ddd4f-304" style="edgeStyle=orthogonalEdgeStyle;rounded=0;orthogonalLoop=1;jettySize=auto;html=1;entryX=0;entryY=0.5;entryDx=0;entryDy=0;" edge="1" parent="1" source="HU9QyjZtkQBuaY1ddd4f-243" target="HU9QyjZtkQBuaY1ddd4f-233">
          <mxGeometry relative="1" as="geometry">
            <Array as="points">
              <mxPoint x="2780" y="590" />
              <mxPoint x="2780" y="480" />
              <mxPoint x="3153" y="480" />
              <mxPoint x="3153" y="650" />
            </Array>
          </mxGeometry>
        </mxCell>
        <mxCell id="HU9QyjZtkQBuaY1ddd4f-308" value="FK" style="text;html=1;align=center;verticalAlign=middle;resizable=0;points=[];autosize=1;strokeColor=none;fillColor=none;" vertex="1" parent="1">
          <mxGeometry x="-20" y="435" width="40" height="30" as="geometry" />
        </mxCell>
        <mxCell id="HU9QyjZtkQBuaY1ddd4f-309" value="PK" style="text;html=1;align=center;verticalAlign=middle;resizable=0;points=[];autosize=1;strokeColor=none;fillColor=none;" vertex="1" parent="1">
          <mxGeometry x="-20" y="370" width="40" height="30" as="geometry" />
        </mxCell>
        <mxCell id="HU9QyjZtkQBuaY1ddd4f-310" value="PK" style="text;html=1;align=center;verticalAlign=middle;resizable=0;points=[];autosize=1;strokeColor=none;fillColor=none;" vertex="1" parent="1">
          <mxGeometry x="170" y="475" width="40" height="30" as="geometry" />
        </mxCell>
        <mxCell id="HU9QyjZtkQBuaY1ddd4f-311" value="FK" style="text;html=1;align=center;verticalAlign=middle;resizable=0;points=[];autosize=1;strokeColor=none;fillColor=none;" vertex="1" parent="1">
          <mxGeometry x="170" y="550" width="40" height="30" as="geometry" />
        </mxCell>
        <mxCell id="HU9QyjZtkQBuaY1ddd4f-313" value="FK" style="text;html=1;align=center;verticalAlign=middle;resizable=0;points=[];autosize=1;strokeColor=none;fillColor=none;" vertex="1" parent="1">
          <mxGeometry x="-80" y="620" width="40" height="30" as="geometry" />
        </mxCell>
        <mxCell id="HU9QyjZtkQBuaY1ddd4f-314" style="edgeStyle=orthogonalEdgeStyle;rounded=0;orthogonalLoop=1;jettySize=auto;html=1;entryX=0;entryY=0.5;entryDx=0;entryDy=0;" edge="1" parent="1" source="HU9QyjZtkQBuaY1ddd4f-262" target="HU9QyjZtkQBuaY1ddd4f-258">
          <mxGeometry relative="1" as="geometry" />
        </mxCell>
        <mxCell id="HU9QyjZtkQBuaY1ddd4f-315" style="edgeStyle=orthogonalEdgeStyle;rounded=0;orthogonalLoop=1;jettySize=auto;html=1;entryX=0;entryY=0.5;entryDx=0;entryDy=0;" edge="1" parent="1" source="HU9QyjZtkQBuaY1ddd4f-256" target="HU9QyjZtkQBuaY1ddd4f-241">
          <mxGeometry relative="1" as="geometry">
            <Array as="points">
              <mxPoint x="10" y="510" />
              <mxPoint x="10" y="465" />
            </Array>
          </mxGeometry>
        </mxCell>
        <mxCell id="HU9QyjZtkQBuaY1ddd4f-318" style="edgeStyle=orthogonalEdgeStyle;rounded=0;orthogonalLoop=1;jettySize=auto;html=1;endArrow=none;endFill=0;" edge="1" parent="1" source="HU9QyjZtkQBuaY1ddd4f-316" target="HU9QyjZtkQBuaY1ddd4f-319">
          <mxGeometry relative="1" as="geometry">
            <mxPoint x="-140" y="-780" as="targetPoint" />
            <Array as="points">
              <mxPoint y="-870" />
              <mxPoint x="-140" y="-870" />
            </Array>
          </mxGeometry>
        </mxCell>
        <mxCell id="HU9QyjZtkQBuaY1ddd4f-324" style="edgeStyle=orthogonalEdgeStyle;rounded=0;orthogonalLoop=1;jettySize=auto;html=1;endArrow=none;endFill=0;" edge="1" parent="1" source="HU9QyjZtkQBuaY1ddd4f-316" target="HU9QyjZtkQBuaY1ddd4f-321">
          <mxGeometry relative="1" as="geometry" />
        </mxCell>
        <mxCell id="HU9QyjZtkQBuaY1ddd4f-325" style="edgeStyle=orthogonalEdgeStyle;rounded=0;orthogonalLoop=1;jettySize=auto;html=1;entryX=0.5;entryY=0;entryDx=0;entryDy=0;endArrow=none;endFill=0;" edge="1" parent="1" source="HU9QyjZtkQBuaY1ddd4f-316" target="HU9QyjZtkQBuaY1ddd4f-320">
          <mxGeometry relative="1" as="geometry">
            <Array as="points">
              <mxPoint y="-870" />
              <mxPoint x="210" y="-870" />
            </Array>
          </mxGeometry>
        </mxCell>
        <mxCell id="HU9QyjZtkQBuaY1ddd4f-316" value="Cliente" style="whiteSpace=wrap;html=1;fillColor=#fad7ac;strokeColor=#b46504;" vertex="1" parent="1">
          <mxGeometry x="-60" y="-940" width="120" height="60" as="geometry" />
        </mxCell>
        <mxCell id="HU9QyjZtkQBuaY1ddd4f-319" value="Producto" style="ellipse;whiteSpace=wrap;html=1;fillColor=#fad7ac;strokeColor=#b46504;" vertex="1" parent="1">
          <mxGeometry x="-200" y="-820" width="120" height="80" as="geometry" />
        </mxCell>
        <mxCell id="HU9QyjZtkQBuaY1ddd4f-320" value="Producto" style="ellipse;whiteSpace=wrap;html=1;fillColor=#fad7ac;strokeColor=#b46504;" vertex="1" parent="1">
          <mxGeometry x="150" y="-850" width="120" height="80" as="geometry" />
        </mxCell>
        <mxCell id="HU9QyjZtkQBuaY1ddd4f-321" value="Compra" style="ellipse;whiteSpace=wrap;html=1;fillColor=#fad7ac;strokeColor=#b46504;" vertex="1" parent="1">
          <mxGeometry x="40" y="-760" width="120" height="80" as="geometry" />
        </mxCell>
        <mxCell id="HU9QyjZtkQBuaY1ddd4f-322" value="Método de pago" style="ellipse;whiteSpace=wrap;html=1;fillColor=#fad7ac;strokeColor=#b46504;" vertex="1" parent="1">
          <mxGeometry x="-100" y="-740" width="120" height="80" as="geometry" />
        </mxCell>
        <mxCell id="HU9QyjZtkQBuaY1ddd4f-323" style="edgeStyle=orthogonalEdgeStyle;rounded=0;orthogonalLoop=1;jettySize=auto;html=1;entryX=0.5;entryY=0;entryDx=0;entryDy=0;endArrow=none;endFill=0;" edge="1" parent="1" source="HU9QyjZtkQBuaY1ddd4f-316" target="HU9QyjZtkQBuaY1ddd4f-322">
          <mxGeometry relative="1" as="geometry" />
        </mxCell>
        <mxCell id="HU9QyjZtkQBuaY1ddd4f-326" value="Personal" style="swimlane;fontStyle=0;childLayout=stackLayout;horizontal=1;startSize=30;horizontalStack=0;resizeParent=1;resizeParentMax=0;resizeLast=0;collapsible=1;marginBottom=0;whiteSpace=wrap;html=1;" vertex="1" parent="1">
          <mxGeometry x="-260" y="-630" width="140" height="140" as="geometry" />
        </mxCell>
        <mxCell id="HU9QyjZtkQBuaY1ddd4f-327" value="Id personal&lt;div&gt;Nombre&lt;/div&gt;&lt;div&gt;Edad&lt;/div&gt;" style="text;strokeColor=none;fillColor=none;align=left;verticalAlign=middle;spacingLeft=4;spacingRight=4;overflow=hidden;points=[[0,0.5],[1,0.5]];portConstraint=eastwest;rotatable=0;whiteSpace=wrap;html=1;" vertex="1" parent="HU9QyjZtkQBuaY1ddd4f-326">
          <mxGeometry y="30" width="140" height="50" as="geometry" />
        </mxCell>
        <mxCell id="HU9QyjZtkQBuaY1ddd4f-328" value="Experiencia laboral&lt;div&gt;Recomendación&amp;nbsp;&lt;/div&gt;" style="text;strokeColor=none;fillColor=none;align=left;verticalAlign=middle;spacingLeft=4;spacingRight=4;overflow=hidden;points=[[0,0.5],[1,0.5]];portConstraint=eastwest;rotatable=0;whiteSpace=wrap;html=1;" vertex="1" parent="HU9QyjZtkQBuaY1ddd4f-326">
          <mxGeometry y="80" width="140" height="30" as="geometry" />
        </mxCell>
        <mxCell id="HU9QyjZtkQBuaY1ddd4f-329" value="Contrato" style="text;strokeColor=none;fillColor=none;align=left;verticalAlign=middle;spacingLeft=4;spacingRight=4;overflow=hidden;points=[[0,0.5],[1,0.5]];portConstraint=eastwest;rotatable=0;whiteSpace=wrap;html=1;" vertex="1" parent="HU9QyjZtkQBuaY1ddd4f-326">
          <mxGeometry y="110" width="140" height="30" as="geometry" />
        </mxCell>
        <mxCell id="HU9QyjZtkQBuaY1ddd4f-330" value="PK" style="text;html=1;align=center;verticalAlign=middle;resizable=0;points=[];autosize=1;strokeColor=none;fillColor=none;" vertex="1" parent="1">
          <mxGeometry x="-580" y="-668" width="40" height="30" as="geometry" />
        </mxCell>
        <mxCell id="HU9QyjZtkQBuaY1ddd4f-331" value="FK" style="text;html=1;align=center;verticalAlign=middle;resizable=0;points=[];autosize=1;strokeColor=none;fillColor=none;" vertex="1" parent="1">
          <mxGeometry x="-580" y="-620" width="40" height="30" as="geometry" />
        </mxCell>
        <mxCell id="HU9QyjZtkQBuaY1ddd4f-332" value="PK" style="text;html=1;align=center;verticalAlign=middle;resizable=0;points=[];autosize=1;strokeColor=none;fillColor=none;" vertex="1" parent="1">
          <mxGeometry x="-330" y="-600" width="40" height="30" as="geometry" />
        </mxCell>
        <mxCell id="HU9QyjZtkQBuaY1ddd4f-333" value="FK" style="text;html=1;align=center;verticalAlign=middle;resizable=0;points=[];autosize=1;strokeColor=none;fillColor=none;" vertex="1" parent="1">
          <mxGeometry x="-330" y="-540" width="40" height="30" as="geometry" />
        </mxCell>
        <mxCell id="HU9QyjZtkQBuaY1ddd4f-334" value="PK" style="text;html=1;align=center;verticalAlign=middle;resizable=0;points=[];autosize=1;strokeColor=none;fillColor=none;" vertex="1" parent="1">
          <mxGeometry x="-590" y="-451" width="40" height="30" as="geometry" />
        </mxCell>
        <mxCell id="HU9QyjZtkQBuaY1ddd4f-335" style="edgeStyle=orthogonalEdgeStyle;rounded=0;orthogonalLoop=1;jettySize=auto;html=1;entryX=0;entryY=0.5;entryDx=0;entryDy=0;" edge="1" parent="1" source="HU9QyjZtkQBuaY1ddd4f-327" target="HU9QyjZtkQBuaY1ddd4f-266">
          <mxGeometry relative="1" as="geometry" />
        </mxCell>
        <mxCell id="HU9QyjZtkQBuaY1ddd4f-336" style="edgeStyle=orthogonalEdgeStyle;rounded=0;orthogonalLoop=1;jettySize=auto;html=1;entryX=0;entryY=0.5;entryDx=0;entryDy=0;exitX=0;exitY=0.5;exitDx=0;exitDy=0;" edge="1" parent="1" source="HU9QyjZtkQBuaY1ddd4f-252" target="HU9QyjZtkQBuaY1ddd4f-329">
          <mxGeometry relative="1" as="geometry">
            <Array as="points">
              <mxPoint x="-550" y="-451" />
              <mxPoint x="-550" y="-500" />
              <mxPoint x="-320" y="-500" />
              <mxPoint x="-320" y="-505" />
            </Array>
          </mxGeometry>
        </mxCell>
        <mxCell id="HU9QyjZtkQBuaY1ddd4f-338" style="edgeStyle=orthogonalEdgeStyle;rounded=0;orthogonalLoop=1;jettySize=auto;html=1;endArrow=ERmany;endFill=0;" edge="1" parent="1" source="HU9QyjZtkQBuaY1ddd4f-337" target="HU9QyjZtkQBuaY1ddd4f-72">
          <mxGeometry relative="1" as="geometry" />
        </mxCell>
        <mxCell id="HU9QyjZtkQBuaY1ddd4f-337" value="Tiene" style="rhombus;whiteSpace=wrap;html=1;fillColor=#d0cee2;strokeColor=#56517e;" vertex="1" parent="1">
          <mxGeometry x="-300" y="-940" width="80" height="80" as="geometry" />
        </mxCell>
        <mxCell id="HU9QyjZtkQBuaY1ddd4f-339" value="PK" style="text;html=1;align=center;verticalAlign=middle;resizable=0;points=[];autosize=1;strokeColor=none;fillColor=none;" vertex="1" parent="1">
          <mxGeometry x="-320" y="-1512" width="40" height="30" as="geometry" />
        </mxCell>
        <mxCell id="HU9QyjZtkQBuaY1ddd4f-340" value="FK" style="text;html=1;align=center;verticalAlign=middle;resizable=0;points=[];autosize=1;strokeColor=none;fillColor=none;" vertex="1" parent="1">
          <mxGeometry x="-320" y="-1452" width="40" height="30" as="geometry" />
        </mxCell>
        <mxCell id="HU9QyjZtkQBuaY1ddd4f-341" value="Id libros" style="ellipse;whiteSpace=wrap;html=1;fillColor=#f8cecc;strokeColor=#b85450;" vertex="1" parent="1">
          <mxGeometry x="294" y="-1512" width="120" height="80" as="geometry" />
        </mxCell>
        <mxCell id="HU9QyjZtkQBuaY1ddd4f-343" value="PK" style="text;html=1;align=center;verticalAlign=middle;resizable=0;points=[];autosize=1;strokeColor=none;fillColor=none;" vertex="1" parent="1">
          <mxGeometry x="-540" y="-1472" width="40" height="30" as="geometry" />
        </mxCell>
        <mxCell id="HU9QyjZtkQBuaY1ddd4f-344" value="FK" style="text;html=1;align=center;verticalAlign=middle;resizable=0;points=[];autosize=1;strokeColor=none;fillColor=none;" vertex="1" parent="1">
          <mxGeometry x="-540" y="-1422" width="40" height="30" as="geometry" />
        </mxCell>
        <mxCell id="HU9QyjZtkQBuaY1ddd4f-345" style="edgeStyle=orthogonalEdgeStyle;rounded=0;orthogonalLoop=1;jettySize=auto;html=1;entryX=0;entryY=0.5;entryDx=0;entryDy=0;" edge="1" parent="1" source="HU9QyjZtkQBuaY1ddd4f-272" target="HU9QyjZtkQBuaY1ddd4f-270">
          <mxGeometry relative="1" as="geometry">
            <Array as="points">
              <mxPoint x="-540" y="-1435" />
              <mxPoint x="-540" y="-1530" />
              <mxPoint x="-315" y="-1530" />
              <mxPoint x="-315" y="-1425" />
            </Array>
          </mxGeometry>
        </mxCell>
      </root>
    </mxGraphModel>
  </diagram>
</mxfile>
